<?xml version="1.0" encoding="UTF-8"?>
<!DOCTYPE svg PUBLIC "-//W3C//DTD SVG 1.1//EN" "http://www.w3.org/Graphics/SVG/1.1/DTD/svg11.dtd">
<!-- Creator: CorelDRAW 2020 (64-Bit) -->
<svg xmlns="http://www.w3.org/2000/svg" xml:space="preserve" width="200mm" height="200mm" version="1.1" style="shape-rendering:geometricPrecision; text-rendering:geometricPrecision; image-rendering:optimizeQuality; fill-rule:evenodd; clip-rule:evenodd"
viewBox="0 0 20000 20000"
 xmlns:xlink="http://www.w3.org/1999/xlink"
 xmlns:xodm="http://www.corel.com/coreldraw/odm/2003">
 <defs>
  <style type="text/css">
   <![CDATA[
    .fil0 {fill:#1A76D1}
   ]]>
  </style>
 </defs>
 <g id="Layer_x0020_1">
  <metadata id="CorelCorpID_0Corel-Layer"/>
  <g id="_2692197145600">
   <path class="fil0" d="M14631.07 11648.22c0,-969.68 1406.25,-905.63 1406.25,0 0,890.71 -1406.25,944.06 -1406.25,0zm-12157.84 8359.38l-156.94 0c-123.85,-39.95 -227.9,-182.37 -225.94,-467.11 1.8,-261 1.65,-521.84 1.65,-782.88 0,-850.65 134.94,-2181.48 -306.02,-2818.98 -153.2,-221.47 -357.19,-433.42 -564.87,-607.02 -1629.54,-1361.97 -653.05,-3761.51 1183.39,-3761.51 1002.88,0 1360.29,585.94 1835.94,585.94 420.96,0 718.32,-58.28 993.19,-334.93 585.17,-588.98 342.23,-1683.74 -290.07,-1852.57 -255.44,171.04 -469.98,390.63 -898.43,390.63 -646.21,0 -1210.94,-514.66 -1210.94,-1171.88 0,-520.56 218.23,-621.73 429.69,-937.5 -390.97,-206.87 -845.57,-722.5 -1042.36,-1145.14 -221.53,-475.76 -363.89,-1143.36 -363.89,-1823.61 0,-320.05 78.86,-2026.31 310.85,-2191.07 184.63,-131.11 470.4,-38.91 470.4,198.88 0,618.2 -156.25,1114.53 -156.25,1757.82 0,1286.56 195.65,2213.27 1328.13,2812.49 24.83,-21.59 52.06,-45.41 84.54,-71.7l2297.65 -1764.85c283.34,-220.39 664.68,-312.73 664.68,117.8 0,228.48 -642.41,637.97 -825.95,775.62l-2260.79 1723.57c-285.75,214.62 -452.1,614.41 -178.84,922.65 136.9,154.44 330.28,171.92 531.2,171.92 240.26,0 1299.64,-906.48 1557.13,-1099.13 1820.47,-1362.08 3603.44,-2783.96 5417.95,-4152.36 330.33,-249.12 797.83,-458.71 681.17,-959.45 -192.33,101.76 -571.88,468.74 -781.25,468.74 -220.02,0 -390.51,-284.8 -226.31,-497.82 118.3,-153.48 383.76,-242.3 499.76,-400.61 -296.2,0 -392.21,117.79 -569.25,251.07l-2767.78 2115.03c-89.79,67.15 -140.74,105.05 -222.13,168.51 -416.21,324.5 -773.58,-170.83 -410.7,-449.68 401,-308.13 2367.59,-1876.35 2563.59,-1928.68 -476.31,-2044.51 -3181.82,-1726.34 -4258.49,-313.18 -132.95,174.5 -332.1,508.5 -624.31,508.5 -421.34,0 -781.25,-170.87 -781.25,-664.07l0 -2500.01c0,-182.35 91.08,-273.43 273.43,-273.43 480.68,0 312.51,855.22 312.51,1328.13 0,556.25 39.06,1002.34 39.06,1523.44 177.27,-47.34 554.51,-635.4 764.5,-798.01 505.2,-391.17 754.26,-534.28 1388.43,-720.94 1292.7,-380.52 2636.64,-54.8 3251.61,1153.46 62.32,122.44 89.63,216.57 142.33,326.42 1048.8,-702.31 1299.05,-130.81 1523.44,-156.24 93.36,-10.59 539.99,-370.39 648.09,-445.67 1192.05,-830.28 2802.83,-870.58 4062.15,-123.94 292.58,173.46 971.47,645.25 1194.8,914.56 335.61,404.72 643.3,775.51 904.38,1244.06 237.56,426.35 438.13,1008.96 544.81,1564.57 222.18,1157.27 341.09,2729.21 341.09,3916.73 0,529.92 -68.48,2304.38 -139.74,2789.95 -49.7,338.77 -21.61,516.38 -110.21,827.29 -141.24,495.66 -387.05,834.25 -756.55,1157.5 -424.79,371.63 -1001.72,537.76 -1649.76,537.76 -1038.06,0 -2070.31,-1044.17 -2070.31,-2187.5 -204.42,-47.64 -489.95,-285.15 -603.1,-451.59 -880.27,-1295.06 838.92,-2787.33 1962.01,-1727.63 292.71,276.19 398.91,625.1 398.91,1046.4 0,606.53 -582.77,1197.82 -1171.88,1210.94 47.56,99.14 43.64,224.88 81.34,348.35 272.18,891.1 1356.84,1449.91 2224.47,1019.96 208,-103.07 301.63,-153.26 480.79,-300.46 711.58,-584.64 591.05,-1610.15 684.26,-2440.75 28.15,-250.82 3.6,-524.66 34.1,-747.15 31.84,-232.37 10.67,-529.37 10.67,-770.58 0,-1782.32 -26.35,-4070.42 -833.14,-5573.12 -1048.29,-1952.52 -3420.52,-3090.41 -5361.32,-1676.02 -160.4,116.89 -320.21,247.77 -485.23,335.08 328.89,621.59 -100.54,1128.11 -117.19,1328.13 190.44,44.36 490.68,303.1 615.84,438.84 664.6,720.8 790.4,1703.86 790.4,2725.22 0,1862.38 -1082.95,5603.07 -2489.65,7002.53 -293.6,292.07 -507.82,499.87 -847.34,754.22 -170.69,127.86 -778.03,563.56 -998.94,563.56 -188.95,0 -312.49,-123.55 -312.49,-312.5 0,-203.8 229.84,-286.62 377.6,-364.57 477.12,-251.65 876.52,-599.82 1253.33,-973.24 255.07,-252.78 452.91,-518.64 658.36,-826.02 878.16,-1313.88 3031.99,-7171.24 697.01,-8478.71 -111.65,-62.52 -189.41,-84.96 -291,-138.71 -123.97,83.02 -277.08,202.18 -399.65,303.48 -872.12,720.77 -1821.15,1350.81 -2698.43,2067.19 -138.67,113.23 -254.62,192.96 -400.84,302.29l-1925.39 1473.04c-150.24,112.4 -660.28,439 -708.5,619.62 147.33,39.34 203.28,138.82 290.82,256.06 704.5,943.65 444.06,2244.02 -641.86,2752.28 -173.86,81.37 -446.1,155.73 -703.64,155.73 -1119.03,0 -852.55,-585.94 -2148.44,-585.94 -687.83,0 -1289.07,742.47 -1289.07,1406.25 0,642.99 300.81,995.11 712.59,1357.72 629.34,554.17 1006.16,1145.53 1006.16,2196.96l0 2500c0,180.44 -113.44,312.44 -243.77,351.57z"/>
   <path class="fil0" d="M4513.87 16804.48l0 2968.75c0,122.52 124.62,216.01 259.35,234.37l94.54 0c107.06,-15.46 203.4,-86.45 229.45,-236.99l2.56 -2497.43c-1.01,-392.06 -57.13,-660.03 348.3,-667.32 661.28,-11.91 1338.68,39.21 1935.31,-56.88 201.01,-32.37 1368.97,-130.4 957.46,-639.84 -171.49,-212.29 -277.49,-104.09 -652.44,-31.7 -1098.15,212.01 -2294.21,-8.78 -2713.86,215.83 -216.71,116 -460.67,388.71 -460.67,711.21z"/>
   <path class="fil0" d="M2092 320.11l0 1796.87c0,419.88 625,431.41 625,-39.06l0 -1718.75c0,-209.65 -136.13,-329.04 -281.34,-351.57l-100.37 0c-130.05,20.58 -243.29,123 -243.29,312.51z"/>
  </g>
 </g>
</svg>
