<?xml version="1.0" encoding="UTF-8"?>
<!DOCTYPE svg PUBLIC "-//W3C//DTD SVG 1.1//EN" "http://www.w3.org/Graphics/SVG/1.1/DTD/svg11.dtd">
<!-- Creator: CorelDRAW 2020 (64-Bit) -->
<svg xmlns="http://www.w3.org/2000/svg" xml:space="preserve" width="200mm" height="200mm" version="1.1" style="shape-rendering:geometricPrecision; text-rendering:geometricPrecision; image-rendering:optimizeQuality; fill-rule:evenodd; clip-rule:evenodd"
viewBox="0 0 20000 20000"
 xmlns:xlink="http://www.w3.org/1999/xlink"
 xmlns:xodm="http://www.corel.com/coreldraw/odm/2003">
 <defs>
  <style type="text/css">
   <![CDATA[
    .fil0 {fill:#1A76D1}
   ]]>
  </style>
 </defs>
 <g id="Layer_x0020_1">
  <metadata id="CorelCorpID_0Corel-Layer"/>
  <path class="fil0" d="M9953.34 15984.17l78.13 0c59.74,256.48 1499.29,2502.14 1562.5,2773.43l-3203.13 0c33.35,-143.15 278.74,-534.71 368.04,-686.65 142.1,-241.73 263.71,-452.46 406.1,-687.65l788.36 -1399.13zm3789.06 -2539.07c0,-841.55 524.28,-1615.41 1301.58,-1979.67 1785.81,-836.86 3702.45,1079.78 2865.59,2865.59 -514.12,1097.09 -1773.54,1605.5 -2865.59,1093.75 -298.06,-139.68 -429.51,-227.98 -647.64,-446.11 -377.05,-377.07 -653.94,-979.07 -653.94,-1533.56zm-10937.5 -546.88c-44.7,-230.96 115.13,-674.47 340.75,-909.25 341.14,-354.99 855.99,-526.11 1363.85,-326.6 741.21,291.15 1090.65,1327.03 454.65,1988.86 -645.99,672.22 -1613.39,474.29 -2016.67,-270.58l-142.58 -482.43zm0 -3124.99c-44.7,-230.97 115.13,-674.48 340.75,-909.26 494.11,-514.18 1246.79,-552.45 1740.38,-78.12 823.29,791.15 327.03,2040.14 -764.03,2150.86 -532.93,54.09 -1146.23,-391.94 -1261.32,-906.77l-55.78 -256.71zm10937.5 -1328.13c0,-1825.99 2291.6,-2963.01 3721.06,-1533.56 1727.51,1727.52 -298.62,4507.11 -2419.48,3513.23 -777.3,-364.26 -1301.58,-1138.12 -1301.58,-1979.67zm-10937.5 -1796.87c-44.7,-230.97 115.13,-674.48 340.75,-909.26 494.11,-514.18 1246.79,-552.45 1740.38,-78.12 1239.8,1191.42 -543.73,2893.38 -1662.26,1818.5 -162.82,-156.45 -310.76,-340.3 -363.09,-574.41l-55.78 -256.71zm10937.5 -3203.13c0,-267.07 115.41,-688.7 207.83,-885.92 805.43,-1718.72 3153.91,-1718.72 3959.34,0 267,569.77 267,1202.07 0,1771.84 -139.68,298.06 -227.98,429.51 -446.11,647.64 -1093.94,1093.93 -2863.09,739.7 -3513.23,-647.64 -92.42,-197.22 -207.83,-618.85 -207.83,-885.92zm-625 -195.3c0,749.75 54.43,1135.4 483.77,1781.84 111.15,167.35 281.56,380.85 436.72,500.78 162.94,125.93 349.65,323.7 563.88,373.63l0 78.12c-586.46,136.63 -1484.37,1320.7 -1484.37,2265.62 0,749.76 54.43,1135.41 483.77,1781.85 111.15,167.35 281.56,380.85 436.72,500.78 162.94,125.93 349.65,323.7 563.88,373.62l0 78.13c-324.31,75.56 -816.52,597.24 -1000.6,874.39 -785.76,1183.08 -618.86,2676.48 414.67,3656.86 -335.28,0 -3929.78,-519.84 -4421.08,-578.93l-4407.04 -592.95c93.48,-139.62 140.2,-101.54 257.88,-249.93 415.96,-524.54 484.3,-737.92 484.3,-1429.76 0,-286.08 -148.54,-644.4 -264.73,-829.02 -241.2,-383.25 -438.72,-461.04 -516.52,-577.23 77.8,-116.19 275.32,-193.98 516.52,-577.23 359.72,-571.54 359.72,-1399 0,-1970.54 -241.2,-383.25 -438.72,-461.04 -516.52,-577.23 196.34,-293.22 781.25,-439.85 781.25,-1718.75 0,-836.69 -882.05,-1718.75 -1718.75,-1718.75 -406.57,0 -608.48,-6.28 -990.86,181.01 -381.07,186.65 -672.73,478.31 -859.38,859.38 -343.62,701.56 -206.94,1542.68 316.68,2133.79 113.83,128.5 198.61,136.45 283.56,263.32 -191.67,286.23 -781.25,431.02 -781.25,1718.75 0,814.19 728.4,1327.33 781.25,1406.25 -84.95,126.87 -169.73,134.83 -283.56,263.32 -422.36,476.79 -497.69,849.95 -497.69,1455.43 0,417.69 220.84,762.05 390.63,1015.62 -483.86,0 -1418.5,-234.37 -1914.06,-234.37 -42.11,180.75 -78.12,402.32 -78.12,625 401.77,93.6 3836.92,515.72 4402.08,597.92 706.06,102.68 1492.33,206.13 2206.62,293.36 388.86,47.49 710.34,88.86 1103.91,146.09l1154.57 134.5c-82.66,354.78 -1953.13,3244.8 -1953.13,3515.63 0,188.96 123.54,312.5 312.5,312.5l4375 0c698.58,0 -13.36,-978.02 -124.95,-1164.11l-1437.55 -2468.7c402.39,0 1662.32,216.42 2187.5,273.43 348.19,37.8 741,102.12 1066.18,144.77l5457.26 714.61c177.64,-762.45 147.78,-649.82 -703.14,-742.18 -239.07,-25.96 -433.78,-55.83 -691.62,-89.63 -63.84,-8.37 -238.43,-36.69 -340.88,-49.74 -209.85,-26.77 -243.36,29.62 -334.68,-95.01 262.35,-61.13 594.74,-405.24 791.89,-614.38 861.31,-913.67 919.44,-2363 208.72,-3433.1 -111.15,-167.35 -281.56,-380.85 -436.72,-500.78 -162.94,-125.93 -349.65,-323.7 -563.89,-373.61l0 -78.13c300.68,-70.04 807.76,-584.04 1000.61,-874.4 655.54,-987.01 655.54,-2186.07 0,-3173.08 -184.08,-277.15 -676.29,-798.83 -1000.61,-874.39l0 -78.12c219.16,-51.06 402.18,-247.43 558.91,-378.6 490.37,-410.3 925.47,-1203.23 925.47,-1887.03 0,-861.1 -111.42,-1338.7 -651.67,-2004.58 -62.5,-77.04 -88.01,-124.99 -157.3,-194.27 -417.58,-417.58 -1190.09,-808.97 -1808.21,-808.97 -847.02,0 -1348.63,119.48 -2004.58,651.67 -293.75,238.31 -568.79,563.31 -729.96,910.68 -116.04,250.15 -273.28,694.68 -273.28,1054.85z"/>
 </g>
</svg>
