<?xml version="1.0" encoding="UTF-8"?>
<!DOCTYPE svg PUBLIC "-//W3C//DTD SVG 1.1//EN" "http://www.w3.org/Graphics/SVG/1.1/DTD/svg11.dtd">
<!-- Creator: CorelDRAW 2020 (64-Bit) -->
<svg xmlns="http://www.w3.org/2000/svg" xml:space="preserve" width="200mm" height="200mm" version="1.1" style="shape-rendering:geometricPrecision; text-rendering:geometricPrecision; image-rendering:optimizeQuality; fill-rule:evenodd; clip-rule:evenodd"
viewBox="0 0 20000 20000"
 xmlns:xlink="http://www.w3.org/1999/xlink"
 xmlns:xodm="http://www.corel.com/coreldraw/odm/2003">
 <defs>
  <style type="text/css">
   <![CDATA[
    .fil0 {fill:#1A76D1}
   ]]>
  </style>
 </defs>
 <g id="Layer_x0020_1">
  <metadata id="CorelCorpID_0Corel-Layer"/>
  <g id="_2691936408176">
   <path class="fil0" d="M12218.56 8718.53c105.19,-198.78 158.86,-205.04 303.22,-360.83l2196.78 -2490.72 265.79 242.27c-32.54,52.12 -69.44,116.26 -120.5,176.45 -144.96,170.8 -334.06,249.69 -342.43,673.2 -4.71,238.88 45.32,444.29 -67.21,596.85 -42.84,58.06 -119.56,118.01 -175.8,175.75 -84.56,86.82 -84.85,107.34 -157.29,194.28 -439.31,527.29 -1169.8,792.75 -1902.56,792.75zm-9829.68 -8710.93l57.81 0c127.04,10.07 251.05,86.69 277.08,236.99 53.73,310.26 -22.06,2337.21 73.47,3090.59 188.99,1490.68 677.01,3128.08 1744.26,4115.11 317.67,293.81 683.21,507.92 880.18,916.71 174.44,362.04 361.8,462.44 808.31,519.8 982.67,126.27 2226.3,144.81 3232.27,5.12 242.8,-33.7 498.12,-48.02 707.97,-112.33 532.36,-163.18 406.91,-634.94 632.71,-1007.93 572.16,-945.24 1582.06,-193.65 1610.93,-185.93l312.51 -390.62c-126.59,-189.04 -490.73,-412.31 -715.87,-534.14 -274.94,-148.77 -594.68,-216.76 -881.46,-329.48 -618.25,-243 -661.09,-1002.16 -928.42,-1532.51 -316.95,-628.77 -561.85,-959.94 -1057.93,-1403.01 -239.29,-213.74 -459.08,-351.57 -752.21,-497.78 -229.62,-114.54 -703.18,-204.61 -703.18,-507.78 0,-643.83 918.56,-85.1 1155.55,55.4 461.88,273.85 834.76,573.35 1179.51,968.93 239.87,275.25 451.23,562.68 621.14,902.29 534.38,1068.05 305.15,1349.14 941.62,1519.3 851.72,227.73 1077.96,559.92 1570.93,890.02 146.63,-218.96 398.08,-441.53 576.65,-634.28 173.54,-187.32 351.07,-478.37 556.17,-615.72 -232,-438.45 -44.47,-580.59 234.37,-937.5 151.07,-193.36 1094.76,-1445.31 1249.99,-1445.31 137.27,0 351.57,51.33 351.57,234.38 0,206.9 -162.99,384.11 -303.5,555.86 -118.95,145.38 -211.54,266.32 -330.49,411.71l-498.4 634.41c-59.61,78.02 -103.76,115.88 -156.67,194.89 108.1,161.43 487.02,488.8 663.97,625.08 92.01,70.86 142.54,133.69 234.46,195.23 183.93,-274.66 1990.71,-2010.24 2373.05,-2392.57 400.4,-400.4 673.83,-520.16 673.83,-1123.06 0,-405.04 -410.26,-742.17 -820.31,-742.17 -762.75,0 -961.25,1093.74 -1406.26,1093.74 -188.93,0 -312.49,-123.54 -312.49,-312.49 0,-122.21 213.19,-353.75 290.32,-451.87 515.61,-655.96 687.13,-915.32 1623.75,-915.32 647.14,0 1249.99,742.91 1249.99,1367.19 0,669.26 -323.13,967.66 -693.36,1337.88l-1894.53 1894.54c-897.47,897.47 -662.19,891.18 -1396.48,830.07 -76.63,114.43 -94.24,137.47 -187.95,241.75 -200.83,223.45 -4.76,659.7 -188.78,983.08 -102.33,179.8 -589.45,733.9 -756.08,845.48 60.84,261.18 117.19,537.21 117.19,859.37 0,2380.88 -217.25,3970.91 -765.85,6187.29 -360.43,1456.17 -893,2651.73 -1438.05,3991.63 -89.04,218.91 -206.19,331.18 -317.32,367.96l-165.05 0c-150.24,-53.53 -241.28,-253.94 -140.03,-480.62 846.13,-1894.3 1474.42,-3786.87 1878.73,-5857.57 213.76,-1094.79 512.32,-3695.23 283.5,-4677.43 -186.34,43.41 -339.61,178.05 -546.88,195.31 179.21,373.47 -57.87,2790.01 -109.96,3210.34 -130.76,1054.94 -318.07,1933.7 -546.18,2852.24 -404.27,1627.87 -957.72,2857.3 -1608.96,4328.56 -84.83,191.66 -114.08,429.17 -391.14,429.17 -644.87,0 -59.79,-798.05 0,-1054.69 -278.91,133.82 -1946.25,-69.36 -2272.85,-109.97 -736.2,-91.55 -1468.57,-177.27 -2221.39,-239.54 -362.4,-29.98 -871.33,-3.78 -1248.21,-1.8 -1151,6.04 -2265.36,-936.82 -2265.36,-1406.5 0,-168.49 89.13,-276.06 247.46,-299.35 289.19,-42.56 417.17,404.51 873.17,741.21 568.61,419.83 1089.75,339.39 1730.92,339.39 1586.98,0 2952.83,390.63 4531.26,390.63l937.49 -39.08c48.82,-209.5 185.57,-415.5 234.39,-624.99 -195.17,0 -366.92,54.64 -549.95,75.06 -1133.52,126.37 -2351.75,-122.64 -3445.51,-259.31 -312.21,-39 -659.09,-40.44 -937.09,-78.51 -663.43,-90.85 -1453.13,120.88 -1969.48,-139.9 -718.08,-362.67 -832.35,-852.49 -832.35,-1628.59 0,-602.97 -28.64,-1172.98 343.96,-1452.91 441.52,-331.71 2000.2,12.21 3258.48,-335.28 1304.86,-360.36 2297.72,-1325.47 2842.37,-2548.24 326.39,-732.81 472.95,-913.24 -347.73,-816.51 -552.18,65.1 -1704.82,189.77 -2336.41,103.2 -173.87,-23.82 -384.99,-11.42 -590.92,-34.08l-838.67 -103.33c-48.49,-6.45 -89.06,-12.93 -140.46,-7.56 -238.16,24.87 -268.29,256.34 -392.87,429.98l-303.25 321.73c-1033.04,865.36 -1914.62,-166.38 -2510.12,-166.38 -538.06,0 -1132.82,491.17 -1132.82,1015.64 0,1190.65 688.35,997.95 1107.91,1860.83 199.3,409.89 454.59,1714.49 454.59,2201.66 0,240.18 -326.26,347.5 -497.96,186.52 -108.39,-101.61 -139.58,-456.89 -171.6,-649.78 -64.19,-386.78 -149.44,-1022.98 -283.58,-1357.03 -184.28,-458.88 -455.78,-561.39 -756.37,-884.27 -1070.43,-1149.79 -184.38,-2959.51 1123.57,-2959.51 1158.65,0 1099.07,468.76 1640.64,468.76 399.36,0 688.32,-128.53 872.58,-455.54 442.11,-784.72 638.06,-655.72 1542.24,-553.04 1116.94,126.84 2400.08,90.88 3500.56,-70.99 485.91,-71.46 920.54,329.04 920.54,767.07 0,327.22 -363.66,1091.42 -507.29,1367.7 -604,1161.81 -1676.64,2027.48 -2914.88,2436.68 -392.2,129.62 -1041.07,258.77 -1537.42,259.46 -2021.52,2.79 -1714.24,-258.4 -1718.8,976.61 -1.46,393.4 -95,391.17 87.89,729.73 284.27,526.21 800.18,401.7 1278,401.7 780.99,0 1513.94,96.45 2225.5,157.31 1003.7,85.86 2146.99,386.72 3181.41,171.46 464.91,-96.73 601.32,-80.6 684.65,-330.97 421.49,-1266.37 784.19,-2568.31 972.27,-3910.53 55.49,-395.99 80.64,-735.7 134.86,-1154.21 69.87,-539.33 23.06,-1139.38 72.76,-1568.11 34.71,-299.31 -5.83,-512.39 -5.83,-864.96 -196.11,16.33 -122.06,53.27 -366.96,18.1 -695.88,-99.95 -1364.94,-143.77 -600.42,-907.36 100.49,-100.35 265.65,-258.72 303.33,-399.79 -85.24,-57.09 -166.4,-117.2 -312.51,-117.2 -522.92,0 -211.09,814.48 -982.79,1321.89 -503.58,331.1 -2360.95,434.02 -2968.1,363.62 -170.72,-19.78 -404.03,-4.23 -581.68,-4.49 -211.2,-0.28 -302.1,-35.31 -506.48,-40.38 -756.14,-18.84 -1284.45,-192.23 -1595.17,-670.47 -184.53,-284.03 -207.9,-421.93 -487.41,-645.39 -632.53,-505.67 -1127,-1150.87 -1498.69,-1899.75 -1010.93,-2036.82 -871.86,-3827.41 -871.86,-6081.27 0,-143.28 118.08,-224.01 248.44,-234.38z"/>
   <path class="fil0" d="M3468.57 241.98l0 1875c0,213.15 107.67,440.98 218.27,562.97 8.74,9.64 247.94,296.4 523.92,296.4 461.41,0 394.86,-8.69 848.33,-206.35 369.4,-161.02 946.42,-305.94 1377.43,-302.25 435.07,3.72 625.79,39.62 625.79,-389.83 0,-456.81 -1476.72,-120.08 -1636.56,-74.07 -190.36,54.81 -337.95,97.22 -529,174.13 -859.38,345.97 -808.33,424.69 -803.06,-998.62 1.09,-295.31 -41.62,-446.08 -39.48,-702.72 3.31,-396.78 -31.45,-469.04 -351.27,-469.04 -94.06,0 -234.37,140.31 -234.37,234.38z"/>
   <path class="fil0" d="M5460.75 12195.1c22.15,-266.19 166.72,-585.94 -312.5,-585.94 -222.12,0 -284.8,393.77 -336.16,601.35 -97.3,393.46 -299.64,783.55 -68.81,975.5 149.27,124.11 549.29,112.67 763.13,135.3 240.25,25.42 813.71,154.77 813.71,-266.83 0,-252.04 -236.18,-312.51 -507.8,-312.51 111.58,-166.64 1067.38,-724.78 1296.86,-929.69 253.77,-226.59 45.32,-638.44 -286.43,-524.69 -115.09,39.46 -324.45,216.51 -447.83,298.25 -164.37,108.89 -288.11,190.3 -439.47,302.71l-474.7 306.55z"/>
   <path class="fil0" d="M5617.01 4890.42c0,218.44 138.08,260.72 280.23,344.76l1190.79 645.14c7.22,4.33 17.37,10.62 24.13,14.94 73.24,46.93 27.71,15.4 67.35,49.84 -739.28,61.52 -592.66,727.26 -43.4,623.86 220.26,-41.47 448.39,-86 683.75,-139.77 806.37,-184.15 564.41,-244.44 194.98,-1319.43 -202.98,-590.68 -640.02,-394.92 -640.02,-24.03 0,169.39 62.15,120.57 78.12,312.49 -125.39,-83.97 -215.74,-124.26 -352.04,-194.83 -315.93,-163.56 -924.57,-586.41 -1249.52,-586.41 -110.37,0 -234.37,162.92 -234.37,273.44z"/>
   <path class="fil0" d="M17609.19 2585.73c0,533.47 703.11,353.32 703.11,-195.32 0,-358.38 -703.11,-269.1 -703.11,195.32z"/>
  </g>
 </g>
</svg>
