<?xml version="1.0" encoding="UTF-8"?>
<!DOCTYPE svg PUBLIC "-//W3C//DTD SVG 1.1//EN" "http://www.w3.org/Graphics/SVG/1.1/DTD/svg11.dtd">
<!-- Creator: CorelDRAW 2020 (64-Bit) -->
<svg xmlns="http://www.w3.org/2000/svg" xml:space="preserve" width="200mm" height="200mm" version="1.1" style="shape-rendering:geometricPrecision; text-rendering:geometricPrecision; image-rendering:optimizeQuality; fill-rule:evenodd; clip-rule:evenodd"
viewBox="0 0 20000 20000"
 xmlns:xlink="http://www.w3.org/1999/xlink"
 xmlns:xodm="http://www.corel.com/coreldraw/odm/2003">
 <defs>
  <style type="text/css">
   <![CDATA[
    .fil0 {fill:#1A76D1}
   ]]>
  </style>
 </defs>
 <g id="Layer_x0020_1">
  <metadata id="CorelCorpID_0Corel-Layer"/>
  <g id="_2692207871520">
   <path class="fil0" d="M5578.33 16179.47l0 2929.69 -2187.5 0 0 -4687.49c0,-237.49 187.27,-650.17 341.72,-830.17 313.73,-365.61 731.12,-654.21 1298.92,-654.21l9921.86 0c648.84,0 1175.92,411.38 1453.92,889.85 68.08,117.19 186.72,425.74 186.72,594.53l0 4687.49 -2187.5 0 0 -2890.62c0,-354.91 -585.94,-474.41 -585.94,195.31l0 2695.31 -7656.26 0 0 -2734.38c0,-229.12 -39.76,-422.58 -225.44,-476.89 -149.36,-43.7 -360.5,55.1 -360.5,281.58zm-2773.43 -1562.49l0 4804.68c0,94.06 140.32,234.37 234.38,234.37l13906.24 0c94.06,0 234.38,-140.31 234.38,-234.37l0 -4804.68c0,-701.77 -332.72,-1254.32 -692.62,-1612.08 -173.37,-172.36 -458.32,-367.75 -701.5,-470.36 -270.35,-114.07 -619.04,-183.19 -988.69,-183.19l-9609.38 0c-1314.11,0 -2382.81,965.89 -2382.81,2265.63z"/>
   <path class="fil0" d="M7023.65 7273.22c0,-1156.81 719.02,-2154.5 1600.9,-2617.86 514.16,-270.15 1339.71,-406.73 1914.73,-272.76 0,682.43 621.7,1210.93 1093.74,1210.93 571.85,0 564.81,-78.12 703.13,-78.12 104.06,0 388.1,605.63 435.43,736.45 750.04,2072.96 -893.72,3990.11 -2661.99,3990.11 -1001.02,0 -1636.98,-292.43 -2236.55,-888.46 -451.88,-449.22 -849.39,-1193.73 -849.39,-2080.29zm4062.51 -2929.68c0,-166.71 113.65,-403.37 206.93,-496.19 431.39,-429.3 1199.31,-147.44 1199.31,496.19 0,617.36 -720.04,926.41 -1178.99,514.91 -103.02,-92.36 -227.25,-333.96 -227.25,-514.91zm-429.7 -546.88l-820.31 -39.06c-1746.88,0 -3359.38,1690.84 -3359.38,3242.19 0,1051.98 79.02,1492.37 671.04,2375.83l399.65 459.74c687.88,575.71 1410.9,992.55 2444.94,992.55 692.83,0 1418.71,-248.57 1946.1,-592.96 852.22,-556.54 1569.53,-1679.96 1569.53,-2727.35 0,-1442.09 -209.99,-1450.83 -703.14,-2382.81 186.95,-353.3 331.17,-517.96 230.73,-1050.8 -195.42,-1036.66 -1742.8,-1479.97 -2379.16,-277.33z"/>
   <path class="fil0" d="M8664.27 9031.04c0,218.49 184.73,273.43 351.57,273.43 220.58,0 290.18,-585.94 1015.62,-585.94 665.78,0 598.87,585.94 1054.7,585.94 282.73,0 371.92,-494.19 -240.78,-892.04 -1177.84,-764.79 -2181.11,295.9 -2181.11,618.61z"/>
   <path class="fil0" d="M12297.09 6687.29c0,-352.59 -305.98,-412.4 -461.36,-267.97 -161.89,150.49 -65.29,502.34 -358.95,502.34 -402.86,0 -207.8,-354.3 -428.15,-511.45 -355.55,-253.61 -682.54,260.72 -243.57,792.54 465.74,564.24 1492.03,223.02 1492.03,-515.46z"/>
   <path class="fil0" d="M7687.71 6648.23c0,800.97 1003.28,1096.56 1474.19,575.75 182.06,-201.35 387.49,-691.22 48.85,-853.44 -140.03,-67.07 -322.84,22.49 -373.62,177.09 -15,45.65 -26.86,374.03 -290.04,374.03 -353.19,0 -218.19,-300.64 -378.19,-482.25 -173.39,-196.84 -481.19,-63.67 -481.19,208.82z"/>
   <path class="fil0" d="M11515.84 593.54l0 1367.19c0,383.12 585.94,519.8 585.94,-195.32 0,-647.96 128.17,-1406.24 -312.51,-1406.24 -192.4,0 -273.43,160.28 -273.43,234.37z"/>
   <path class="fil0" d="M13195.52 2663.86c0,306.86 212.48,273.43 351.57,273.43 105.13,0 1087.37,-1027.6 1101.63,-1048.9 81.99,-122.49 114.56,-435.48 -242.25,-435.48 -217.31,0 -1210.95,993.64 -1210.95,1210.95z"/>
   <path class="fil0" d="M8898.64 1726.35c0,209.16 991.02,1210.94 1210.95,1210.94 331.42,0 330.8,-282.36 257.92,-410.86 -47.49,-83.75 -283.6,-298.41 -365.34,-380.16 -126.71,-126.7 -224.86,-224.84 -351.56,-351.55 -318.66,-318.7 -237.89,-341.81 -556.65,-341.81 -126.28,0 -195.32,141.8 -195.32,273.44z"/>
  </g>
 </g>
</svg>
