<?xml version="1.0" encoding="UTF-8"?>
<!DOCTYPE svg PUBLIC "-//W3C//DTD SVG 1.1//EN" "http://www.w3.org/Graphics/SVG/1.1/DTD/svg11.dtd">
<!-- Creator: CorelDRAW 2020 (64-Bit) -->
<svg xmlns="http://www.w3.org/2000/svg" xml:space="preserve" width="186mm" height="207.771mm" version="1.1" style="shape-rendering:geometricPrecision; text-rendering:geometricPrecision; image-rendering:optimizeQuality; fill-rule:evenodd; clip-rule:evenodd"
viewBox="0 0 18600 20777.08"
 xmlns:xlink="http://www.w3.org/1999/xlink"
 xmlns:xodm="http://www.corel.com/coreldraw/odm/2003">
 <defs>
  <style type="text/css">
   <![CDATA[
    .fil0 {fill:#1A76D1;fill-rule:nonzero}
   ]]>
  </style>
 </defs>
 <g id="Layer_x0020_1">
  <metadata id="CorelCorpID_0Corel-Layer"/>
  <path class="fil0" d="M304.13 5829.97c148.8,-276.84 662.81,-359.81 1718.8,-505.9 798.97,-110.92 1792.72,-249.78 2420.28,-537.46 106.41,-47.79 229.95,-1.8 278.64,104.6 47.79,105.51 1.81,230.86 -103.7,278.65 -684.44,312.92 -1669.2,449.98 -2537.56,570.83 -549.17,75.75 -1301.26,180.36 -1412.18,298.5 -37.88,69.44 -106.42,107.31 -179.45,107.31 -34.27,0 -69.44,-8.11 -102.8,-26.16 -101.91,-55.91 -137.07,-187.56 -82.06,-290.37l0.03 0zm3751.4 -1885.63c14.42,2.71 28.85,3.6 43.29,2.71 2227.38,-82.97 2755.94,222.74 4164.39,1043.34 225.44,131.67 473.44,275.94 752.98,432.85 1264.3,709.69 2891.93,1597.06 4341.24,2215.68 328.25,830.54 915.3,1645.74 1955.97,2473.61 38.78,30.66 84.77,45.99 130.76,45.99 62.22,0 123.54,-27.05 165.02,-79.36 72.14,-91.08 56.81,-223.64 -33.36,-295.77 -998.27,-792.67 -1549.25,-1562.78 -1850.44,-2358.19 -3.61,-11.72 -6.32,-21.65 -11.72,-31.56 -367.94,-995.57 -350.79,-2030.81 -330.05,-3201.27 20.74,-1184.03 44.18,-2525.79 -365.22,-4035.35 -30.65,-111.82 -146.08,-178.56 -257.9,-147.89 -111.82,30.67 -178.56,146.09 -147.89,257.91 393.17,1450.97 371.54,2705.38 350.79,3917.38 -18.03,1026.22 -34.27,1985.72 217.32,2918.24 -1341.85,-599.69 -2801.88,-1396.86 -3958.01,-2046.13 -277.74,-156.01 -523.02,-298.5 -747.58,-429.26 -1439.24,-837.75 -2038.01,-1186.74 -4370.09,-1100.17 -1270.6,-223.63 -1784.62,-1301.26 -1572.7,-3293.38 12.62,-115.42 -71.24,-219.12 -186.67,-230.85 -115.42,-12.63 -219.13,71.23 -231.75,186.67 -238.06,2234.6 414.82,3497.91 1941.53,3755.09l0.09 -0.29zm11507.66 -3834.27c-55.91,-101.91 -183.06,-139.78 -284.97,-84.77 -101.9,55.91 -139.77,183.96 -83.86,284.97 1892.83,3485.45 2895.61,6949.89 2979.41,10300.98 7.22,357.11 -77.54,615.92 -260.61,789.96 -239.88,227.25 -664.61,321.92 -1262.5,278.64 -8.11,-0.9 -15.33,-0.9 -23.44,-0.9 -217.33,9.02 -431.96,24.35 -645.68,42.38 -34.27,-62.23 -95.59,-109.12 -171.34,-111.82l-129.86 -5.4 -125.35 -9.02 -130.75 -5.41 -35.17 -4.51c-119.93,-5.41 -220.03,84.77 -225.43,200.19 -0.91,7.22 2.7,13.53 2.7,21.65 -511.3,62.22 -1013.59,138.86 -1505.96,214.62 -1087.53,167.74 -2114.68,324.64 -3165.25,330.05l-33.37 0c-1353.58,0 -1757.57,-323.72 -2314.79,-770.1 -407.6,-326.45 -865.71,-693.46 -1757.57,-1005.49 146.09,-229.94 282.26,-484.26 407.6,-762 47.79,-105.5 0.9,-230.85 -104.6,-278.64 -105.51,-47.79 -230.86,-0.91 -278.65,105.5 -463.51,1025.32 -1065,1689.93 -1786.42,1974 -912.59,350.79 -3542.24,106.42 -4323.92,-304.8 -102.8,-53.2 -229.95,-14.42 -284.06,88.37 -54.12,102.8 -14.43,229.06 88.37,284.07 580.74,305.69 1964.07,522.12 3140.09,522.12 616.83,0 1175.93,-59.52 1532.12,-196.58 512.23,-201.1 966.71,-560.91 1358.97,-1071.31 73.95,24.36 145.18,49.59 212.83,73.95 -106.41,348.08 -214.63,691.66 -321.03,1029.82 -880.13,2788.27 -1710.68,5421.41 -951.38,8575.12 23.44,96.48 109.12,161.42 204.7,161.42 16.23,0 32.47,-1.8 49.59,-5.4 112.72,-27.06 182.16,-140.69 155.11,-253.41 -732.25,-3040.82 44.18,-5500.82 944.15,-8350.49 102.8,-327.35 207.41,-659.2 310.22,-994.66 520.32,239.88 845.87,499.6 1141.64,737.65 577.14,463.51 1076.73,863.01 2580.04,863.01l33.37 -0.04c1082.14,-5.4 2123.68,-165.93 3226.67,-333.65 940.55,-144.29 1914.48,-293.97 2909.24,-336.35 725.02,50.5 1238.14,-78.46 1569.99,-394.97 269.64,-256.11 401.3,-626.73 390.47,-1102.87 -85.67,-3422.2 -1105.59,-6951.74 -3030.91,-10495.82l-0.41 -0.06zm-4772.23 10752.77l-149.69 -39.67 -145.18 -45.1 -70.34 -20.73c-115.43,-30.66 -230.86,35.16 -265.12,145.18 -30.65,115.42 35.17,230.85 145.18,266.01l70.34 19.84 149.7 40.58 155.11 45.09 39.67 9.92c110.02,30.65 230.86,-39.67 260.62,-149.69 25.25,-115.42 -39.68,-230.86 -155.11,-260.62l-35.18 -10.81zm-1592.53 -505.9l-115.43 -39.67 -115.42 -45.09 -110.01 -40.59 -25.25 -9.91c-110.02,-40.58 -229.95,14.42 -270.55,124.44 -45.09,110.93 9.92,235.36 119.94,275.94l25.25 9.02 115.42 40.58 115.42 39.68 115.42 45.09 35.17 9.91c110.01,39.68 230.85,-19.84 270.54,-129.86 35.16,-110.92 -19.84,-229.94 -129.86,-270.54l-30.64 -9zm3185.1 871.12l-90.17 -19.85 -90.18 -14.42 -90.17 -19.85 -60.41 -10.82c-115.42,-24.35 -225.44,50.5 -250.69,165.93 -19.84,115.43 55.01,225.44 165.03,250.69l60.41 9.92 90.17 20.73 94.69 15.34 94.68 19.84 80.26 14.43c115.42,19.84 225.44,-55.01 250.68,-170.43 19.85,-115.42 -60.41,-225.44 -175.84,-245.28l-78.46 -16.23zm1738.62 250.67l-110.01 -9.91 -110.02 -14.43 -110.02 -9.91 -80.25 -9.92c-114.53,-15.33 -220.04,64.92 -235.36,180.36 -14.43,119.93 70.34,225.44 185.76,239.87l80.26 9.92 110.02 9.92 110.02 15.33 115.42 9.02 9.91 -0.01c115.43,15.33 220.04,-70.34 229.95,-184.87 14.43,-119.93 -70.34,-220.94 -190.27,-235.36l-5.41 -0.01zm-6545.9 -1717.88l-84.76 -30.66 -90.18 -25.24 -84.76 -29.76 -84.77 -24.36 -9.93 0c-110.02,-35.16 -229.95,29.76 -260.62,145.18 -35.16,110.02 30.66,229.95 145.19,260.62l4.51 4.51 80.25 20.74 84.77 25.25 80.26 30.65 84.77 25.25 55.01 19.84c110.01,40.59 229.94,-19.84 270.54,-129.86 40.58,-110.92 -19.84,-230.85 -129.86,-270.54l-60.42 -21.62zm333.66 3397.03l-0.91 0c-37.87,-37.87 -90.17,-61.32 -147.89,-61.32 -57.72,0 -110.02,23.45 -147.89,61.32l-0.89 0 -480.64 481.55c-82.06,82.06 -82.06,215.52 0,297.59 82.06,82.06 215.52,82.06 297.59,0l121.74 -122.64 0 1656.58c0,116.33 93.79,210.11 210.12,210.11 116.32,0 210.11,-93.78 210.11,-210.11l0 -1656.58 121.74 122.64c41.47,40.59 94.68,61.32 148.79,61.32 54.12,0 107.31,-19.84 148.8,-61.32 82.06,-82.96 82.06,-216.43 0,-297.59l-480.67 -481.55zm8373.8 0l-0.9 0c-37.87,-37.87 -90.17,-61.32 -147.89,-61.32 -58.61,0 -110.01,23.45 -148.79,61.32l-0.91 0 -480.64 481.55c-82.06,82.06 -82.06,215.52 0,297.59 82.06,82.06 215.52,82.06 297.6,0l121.73 -122.64 0 1656.58c0,116.33 93.79,210.11 210.12,210.11 116.33,0 210.11,-93.78 210.11,-210.11l0 -1656.58 121.74 122.64c41.48,40.59 94.68,61.32 148.8,61.32 54.1,0 108.21,-19.84 148.79,-61.32 82.06,-82.96 82.06,-216.43 0,-297.59l-479.76 -481.55zm-4187.01 110.02c0,-0.91 -0.91,-0.91 -1.8,-0.91 -18.94,-18.03 -41.48,-34.27 -66.73,-44.18 -51.4,-21.65 -109.12,-21.65 -160.51,0 -25.25,10.82 -47.79,26.15 -66.73,44.18 0,0.91 -0.91,0.91 -1.8,0.91l-480.64 480.64c-82.06,82.06 -82.06,215.52 0,297.59 82.06,82.06 215.53,82.06 297.6,0l121.73 -121.73 0 1655.67c0,116.33 93.79,210.11 210.12,210.11 116.33,0 210.12,-94.68 210.12,-210.11l0 -1655.67 121.73 121.73c41.48,41.48 94.68,61.32 148.8,61.32 54.11,0 107.31,-20.74 148.79,-61.32 82.06,-82.06 82.06,-215.52 0,-297.59l-480.68 -480.64z"/>
 </g>
</svg>
