<?xml version="1.0" encoding="UTF-8"?>
<!DOCTYPE svg PUBLIC "-//W3C//DTD SVG 1.1//EN" "http://www.w3.org/Graphics/SVG/1.1/DTD/svg11.dtd">
<!-- Creator: CorelDRAW 2020 (64-Bit) -->
<svg xmlns="http://www.w3.org/2000/svg" xml:space="preserve" width="200mm" height="200mm" version="1.1" style="shape-rendering:geometricPrecision; text-rendering:geometricPrecision; image-rendering:optimizeQuality; fill-rule:evenodd; clip-rule:evenodd"
viewBox="0 0 20000 20000"
 xmlns:xlink="http://www.w3.org/1999/xlink"
 xmlns:xodm="http://www.corel.com/coreldraw/odm/2003">
 <defs>
  <style type="text/css">
   <![CDATA[
    .fil0 {fill:#1A76D1}
   ]]>
  </style>
 </defs>
 <g id="Layer_x0020_1">
  <metadata id="CorelCorpID_0Corel-Layer"/>
  <g id="_2692212627280">
   <path class="fil0" d="M8977.99 3835.73c416.68,0 1145.12,787.3 1412.09,1126.96 67.34,85.67 145.71,202.93 202.21,305.61 156.56,284.65 771.89,1501.76 594.32,1788.33 -66.75,107.76 -159.94,177.77 -246.46,264.69 -98.27,98.71 -140.46,167.77 -234.91,273.15 -204.25,227.91 -148.76,467.39 208.29,555.7 185.99,46.02 225.92,60.56 447.27,60.56 0,1146.26 -628.41,3042.26 -1316.56,3956.87 -97.9,130.12 -244.6,338.75 -363.14,418.12 0,-418.74 227.87,-2509.15 296.27,-2984.98 25.55,-177.68 5.73,-338.43 33.25,-514.67 42.67,-273.21 -5.53,-256.71 -16.67,-485.03 -46.87,-961.12 -351.74,-1717.23 -870.77,-2410.52 -145.93,-194.94 -347.59,-470.94 -535.82,-596.99 67.76,-290.86 148.68,-536.87 193.59,-861.1 66.44,-479.71 -28.17,-896.7 197.04,-896.7zm8181.79 -3828.13l134 0c712.99,31.24 1410.76,562.75 1410.76,1406.25 0,701.11 -376.17,981.65 -732.42,1337.88l-2031.24 2031.26c-700.64,700.64 -639.26,789.76 -1220.71,654.3 -412.6,616.16 -273.43,55.51 -273.43,859.37 0,401.39 -623.71,1017.69 -925.12,1262.4 -370.74,301 -1014.57,651.67 -1535.82,651.67l-113.27 1058.61c-248.71,1250.83 -931.88,2939.6 -1830.06,3834 -481.62,479.6 -448.02,255.07 -440.44,692.36 6.33,366.65 -38.1,684.2 -38.1,1094.71 0,1362.13 151.92,2978.13 665.07,4139.61l259.91 564.1c88.14,227.16 -48.36,387.04 -214.46,413.48l-97.23 0c-76.87,-12.21 -152.17,-54.09 -207.98,-131.88 -258.95,-360.96 -606.59,-1426.35 -688.95,-1811.06 -162.02,-756.83 -302.3,-1610.56 -302.3,-2549.25 0,-522.36 -12.59,-2138.07 61.61,-2633.68 26.13,-174.44 50.65,-531.72 55.51,-686.69 18.74,-597.17 139.13,-1311.88 194.29,-1954.15 104,-1210.8 311.03,-2177.57 -460,-3405.01 -59.45,-94.64 -108.47,-165.91 -170.92,-258.79 -400.01,-594.97 -849.77,-804.29 -1117.06,-1070.43 -116.84,-116.32 -291.49,-382.51 -360.61,-537.82 -378.39,-850.1 82.85,-1455.49 -74.77,-1995.3 -263.75,-903.15 -2121.26,-395.21 -2684.9,-139.97 -953.46,431.77 -1497.84,-249.54 -1497.84,-794.72l0 -1796.88c0,-94.06 140.31,-234.37 234.37,-234.37 492.17,0 310.17,321.85 379.95,830.98 40.07,292.3 8.12,771.66 8.46,1085.29 1.32,1174.72 1214.67,-446.28 3211.11,-7.96 496.26,108.94 970.79,579.88 970.79,1177.63 0,943.66 -276.31,1333.61 192.24,1917.14 78.44,97.69 19.59,76.79 159.32,114.11 43.96,-188.67 94.55,-376.71 113.85,-589.29 19.98,-220.17 20.68,-426.9 46.04,-657.09 36.77,-333.78 360.75,-667.69 738.56,-667.69 600.83,0 1499.66,863.09 1775.1,1232.72 247.82,332.56 379.11,537.54 568.66,915.7 111.81,223.1 366.91,769.89 390.61,1054.71l78.12 0c37.39,-140.01 130.89,-188.07 225.33,-282.49l1102.8 -1240.95c140.31,-183.82 290.63,-300.15 429.69,-507.81 -25.62,-109.94 -78.12,-198.49 -78.12,-312.5 0,-316.31 913.76,-1323.36 1149.68,-1623.74 82.97,-105.64 326.05,-446.57 451.88,-446.57 209.42,0 351.56,91.93 351.56,312.5 0,250.09 -1219.2,1496.16 -1289.07,1757.81l859.39 781.25c202.94,-135.91 624.92,-605.4 830.06,-810.55l1601.56 -1601.56c232.31,-232.29 654.3,-524.36 654.3,-947.26 0,-875.37 -964.29,-1209.44 -1518.42,-502.81l-382.93 476.45c-411.12,521.68 -637.71,37.74 -637.71,-12.71 0,-268.36 446.65,-727.02 618.93,-943.57 259.97,-326.77 626.39,-484.87 1000.37,-501.74zm-5642.73 7617.19c167.12,-249.56 405.46,-486.47 615.68,-712.45 74.24,-79.78 71.98,-95.47 138.03,-174.46 59.59,-71.27 109.78,-111.53 174.76,-176.81 299.49,-300.93 965,-1127.78 1249.03,-1407.22 129.18,-127.08 191.3,-253.71 322.5,-341.55 90.63,60.68 177.13,130.81 273.44,195.31 -268.53,401 -469.71,402.59 -470.86,857.26 -1.5,593.9 53.94,468.28 -242.74,772.89 -217.78,223.6 -416.3,547 -914.98,764.7 -364.32,159.06 -629.9,222.33 -1144.86,222.33z"/>
   <path class="fil0" d="M5540.48 8640.41c0,-223.99 273.89,-234.03 524.97,-334.41 999.74,-399.69 1209.71,-834.19 1506.29,-1032.78 147,219.53 265.49,402.63 375.07,679.62 299.88,757.97 120.81,1411.77 55.68,2173.02 -87.66,1024.82 -313.57,2706.87 -313.57,3709.87l-763.52 134.89c-364.06,53.06 -603.67,-35.05 -603.67,372.92 0,101.28 113.95,204.89 192.91,239.46 121.34,53.14 629.35,-21.61 779.09,-48.71 138.33,-25.02 236.01,-70.02 395.19,-73.56l39.4 1952.8c13.28,280.47 77.79,547.48 77.79,859.69 -665.25,445.48 -816.1,585.94 -1640.63,585.94 -854.41,0 -1679.68,-825.77 -1679.68,-1914.06 0,-1537.99 -113.87,-1330.51 625.04,-1328.09 464.97,1.54 664.01,45.29 664.01,-390.65 0,-324.32 -723.38,-234.39 -1054.68,-234.39 -255.67,0 -407.01,70.06 -554.41,187.78 -106.93,85.42 -265.9,300.98 -265.9,476.29 0,1383.89 -189.73,2213.88 731.81,3135.37 935.49,935.43 2221.32,862.58 3291.62,145.87 79.95,166.63 76.3,419.32 156.25,585.94 -263.8,70.44 -1385.96,962.83 -3019.83,246.4 -572.48,-251.02 -1122.53,-793.49 -1407.43,-1366.01 -879.51,-1767.43 391.82,-2799.38 -1246.16,-4300.71 -326.41,-299.19 -498.44,-430.64 -498.44,-1024.98 0,-618.02 496.92,-1093.76 1210.93,-1093.76 661.24,0 1286.8,945.34 2617.57,-77.75 713.27,-548.35 798.73,-1510.48 54.82,-2008.7 -94.09,-63 -250.52,-132.96 -250.52,-257.3zm-3476.55 -3437.5c0,265.54 735.37,2460.94 1757.81,2460.94 1500.59,0 2011.91,-937.5 2578.12,-937.5 342.29,0 422.69,-31.2 703.12,117.19 -35.87,134.38 -55,121.58 -155.07,196.48 -229.18,171.54 -317.64,294.79 -652.43,480.39 -445.21,246.8 -876.75,362.65 -1028.19,456.18 -291.9,180.27 -435.08,646.36 -247.66,1028.42 190.82,389.03 677.1,330.53 677.1,885.4 0,223.42 -254.1,484 -389.77,586.79 -596.61,452.03 -916.54,329.63 -1446.36,77.47 -1766.56,-840.77 -3462.22,1278.38 -2064.08,2806.28l96.42 98.87c171.7,158.71 457.54,420.99 570.62,601.28 240.59,383.64 228.23,730.23 225.1,1337.38 -1.58,307.77 42.81,444.33 39.59,741.68 -27.01,2491.04 2769.07,4283.75 5104.39,3190.84 147.82,-69.19 267.56,-168.24 442.22,-182.77 14.08,169.17 103.14,358.75 161.18,502.89 107.85,267.84 119.78,356.48 424.75,356.48 110.38,0 234.38,-162.91 234.38,-273.43l-351.7 -1054.55c-342.64,-1238.53 -468.61,-2437.95 -468.61,-3789.21 0,-903.9 127.58,-3073.04 256.56,-4001.25 63.44,-456.73 86.35,-844.26 145.63,-1299.69 126.29,-970.18 -1.57,-1629.49 -389.38,-2329.06 -341.2,-615.46 -879.9,-1159.06 -1770.63,-1159.06 -787.33,0 -975.54,455.61 -1796.35,781.77 -1126.54,447.63 -1364.19,62.87 -1942.68,-1378.66 -139.48,-347.57 -97.69,-535.93 -479.71,-535.93 -94.06,0 -234.37,140.33 -234.37,234.38z"/>
   <path class="fil0" d="M3782.67 12859.17c0,369.82 164.25,338.74 781.25,585.94 138.26,55.38 820.31,423.33 820.31,-117.2 0,-250.75 -187.74,-304.3 -390.61,-351.56 183.44,-250.39 1679.68,-400.67 1679.68,-820.31 0,-581.41 -812.65,-165.14 -1088.78,-73.16 -119.87,39.93 -243.22,76.04 -379.12,128.71 -147.67,57.23 -252.26,103.68 -407.09,139.76 50.05,-214.89 117.17,-130.27 117.17,-429.68 0,-110.38 -162.91,-234.38 -273.43,-234.38 -262.09,0 -379.08,325.81 -495.51,520.12 -53.79,89.77 -363.87,599.72 -363.87,651.76z"/>
   <path class="fil0" d="M3626.43 3952.91c0,206.44 133.62,283.01 272.47,352.53l1183.49 652.45c77.28,52.98 22.71,10.81 67.47,49.72 -844.05,196.64 -351.02,651.37 -158.63,656.87 68.31,1.94 441.65,-84.19 517.97,-102.21 1086.14,-256.65 951.51,-142.96 602.6,-1126 -127.05,-357.99 -175.34,-600.54 -454.13,-600.54 -469.02,0 -211.89,553.85 -195.31,625 -177.89,-94.14 -1354.83,-781.25 -1523.44,-781.25 -167.16,0 -312.49,120.41 -312.49,273.43z"/>
   <path class="fil0" d="M1595.17 320.11c0,1059.77 -44.99,2174.4 74.78,3206.47 53.97,465.05 45.13,816.96 393.98,816.96 432.8,0 257.43,-503.13 211.39,-836.4 -82.34,-596.16 -94.21,-1848 -94.21,-2483.92 0,-775.18 101.57,-1015.62 -351.57,-1015.62 -126.56,0 -234.37,169.75 -234.37,312.51z"/>
   <path class="fil0" d="M16868.61 1531.04c0,190.46 229.2,339.77 397.15,282.79 490.97,-166.58 406.77,-885.88 -51.21,-722.76 -131.29,46.76 -345.94,285.08 -345.94,439.97z"/>
  </g>
 </g>
</svg>
