<?xml version="1.0" encoding="UTF-8"?>
<!DOCTYPE svg PUBLIC "-//W3C//DTD SVG 1.1//EN" "http://www.w3.org/Graphics/SVG/1.1/DTD/svg11.dtd">
<!-- Creator: CorelDRAW 2020 (64-Bit) -->
<svg xmlns="http://www.w3.org/2000/svg" xml:space="preserve" width="200mm" height="200mm" version="1.1" style="shape-rendering:geometricPrecision; text-rendering:geometricPrecision; image-rendering:optimizeQuality; fill-rule:evenodd; clip-rule:evenodd"
viewBox="0 0 20000 20000"
 xmlns:xlink="http://www.w3.org/1999/xlink"
 xmlns:xodm="http://www.corel.com/coreldraw/odm/2003">
 <defs>
  <style type="text/css">
   <![CDATA[
    .fil0 {fill:#1A76D1}
   ]]>
  </style>
 </defs>
 <g id="Layer_x0020_1">
  <metadata id="CorelCorpID_0Corel-Layer"/>
  <g id="_2692196646912">
   <path class="fil0" d="M11906.47 13249.8c-998.11,0 -1959.81,-597.05 -2375.84,-1217.93 -430.74,-642.84 -592.91,-1068.48 -592.91,-1907.08 0,-1393.21 1445.45,-2968.75 2812.5,-2968.75 946.64,0 1595.38,252.36 2256.2,907.84 1888.13,1872.86 506.05,5185.92 -2099.95,5185.92zm-1601.57 -7929.7c0,345.52 369.84,356.81 625,234.37 8.39,376.68 156.25,768.79 156.25,1171.88 -89.58,42.98 -260.2,76.5 -357.28,111.47 -291.86,105.05 -661.87,335.34 -893.18,513.07 -248.5,190.94 -810.41,688.13 -897.97,1016.08 -202.63,-16.86 -239.76,-111.99 -429.7,-156.25 0.36,-15.59 128.01,-468.75 -195.3,-468.75 -238.63,0 -281.26,167.65 -364.8,338.34 -52.51,107.31 -456.27,709.6 18.93,734.88 155.94,8.29 190.76,-97.07 306.8,-174.77l390.09 196.35c-204.97,882.74 -233.84,481.94 -233.84,1561.46 0,801.47 381.16,1354.21 429.69,1562.5 -302.26,159.94 -557.12,386.93 -859.37,546.87 -75.02,-280.96 -468.75,-270.26 -468.75,78.13 0,37.49 289.54,862.23 552.65,877.95 96.55,5.75 267.65,-59.83 267.65,-252.95 0,-141.92 -46.34,-137.02 -78.12,-273.43 302.25,-159.95 557.12,-386.95 859.37,-546.88 137.33,91.95 158.59,180.76 341.06,362.07 96.26,95.65 279.9,269.62 401.14,301.99 -7.01,6.08 -19.08,4.97 -22.07,16.98l-79.47 76.79c-265.11,389.95 711.98,950.41 726.54,296.85 1237.89,655.02 1132.81,-403.66 1132.81,1328.13 -607.66,0 -462.76,507.82 -156.25,507.82l898.44 0c197.58,0 446.9,-507.82 -195.32,-507.82 0,-1688.81 -155.48,-687.46 1133.47,-1327.48 192.06,-95.36 321.71,-163.07 499.48,-281.76 332.58,-222.07 295.34,-289.76 476.43,-304.82 -0.52,1.95 -242.68,468.75 156.25,468.75 240.42,0 625,-518.67 625,-585.94 0,-119.65 -25.4,-239.15 -183.32,-288.6 -263.09,-82.36 -474.51,324.18 -19.17,-382.64 76.15,-118.2 208.66,-359.45 241.56,-500.64l701.01 240.65c-39.16,173.98 -52.86,423.42 236.49,423.42 299.15,0 429.68,-909.59 429.68,-937.5 0,-177.41 -401.59,-416.94 -507.81,39.06 -116.54,-55.92 -561.99,-222.64 -703.12,-234.38 265.7,-553.79 80.98,-1780.06 -156.68,-2304.27 -54.37,-119.91 -122.73,-209.92 -155.82,-351.98l584.66 -391.89c115.24,-84.52 72.97,-102.39 235.64,-115.92 65.12,243.86 243.84,206.35 429.7,117.18 80.82,-346.99 42.65,-268.21 -211.8,-686.64 -386.8,-636.03 -608.52,-309.84 -608.52,-94.61 0,119.19 37.51,157.63 78.12,234.38 -127.62,34.08 -94.68,43.19 -196.32,116.18l-584.93 391.64c-68.13,-49.92 -624.72,-736.81 -937.5,-820.32 77.65,-333.29 149.1,-88.65 324.9,-261.04 118.53,-116.22 119.83,-325.11 -180.61,-469.18 -153.12,-73.43 -613.04,-395.94 -613.04,144.29 0,94.46 187.26,229.31 -5.66,286.25 -71.31,21.04 -221.76,-71 -331.14,-105.61 -524.2,-165.83 -811.41,-141.59 -1342.88,-141.59 0,-393.99 -156.25,-797.86 -156.25,-1171.87 162.08,-13.48 399.06,-40.41 479.1,-149.64 111.45,-152.07 -24.29,-397.24 -127.54,-397.24 -72.28,0 -1484.38,100.32 -1484.38,390.63z"/>
   <path class="fil0" d="M5617.4 7624.79l0 11289.06c0,609.02 408.85,1093.75 898.44,1093.75l918.28 0c179.2,-24.48 289.29,-100.98 605.15,-312.5 142.39,212.64 385.45,288.55 660.04,312.5l785.28 0c445.2,0 898.44,-453.23 898.44,-898.43l0 -4218.75c0,-199.78 -510.39,-409.36 -510.07,193.06 0.31,568.12 45.2,3912.56 -22.58,4118.05 -131.97,400.19 -622.12,298.27 -1147.04,298.27 -556.39,0 -429.69,-735.1 -429.69,-1054.7 0,-366.32 31.79,-3977.49 -17.53,-4123.1 -102.16,-301.54 -369.49,-137.48 -490.28,-56.58l0 4218.75c0.11,1112.65 -99.77,1015.63 -1132.82,1015.63 -553.16,0 -507.86,-505.11 -507.82,-1054.7l0.02 -11015.63c-366.1,-245.13 -507.82,-22.42 -507.82,195.32z"/>
   <path class="fil0" d="M3508.02 7156.04l0 5781.26c0,447.11 446.9,898.43 898.45,898.43 344.01,0 453.85,28.11 742.18,-39.06 127.46,-547.13 -59.89,-439.69 -665.89,-466.93 -262.03,-11.79 -466.92,-174.05 -466.92,-431.51l0 -5664.06c0,-569.48 296,-1039.97 618.37,-1295.69 434.6,-344.71 767.97,-384.03 1530.06,-384.01l2851.57 0c414.88,0.3 620.09,83 703.13,-273.43 -69.27,-130.89 -110.67,-234.37 -312.5,-234.37l-3710.95 0c-338.81,0 -621.27,78.26 -871.46,183.21 -203.02,85.17 -497.35,289.69 -657.58,436.18 -169.55,155.04 -334.38,400.22 -437.78,616.91 -113.58,238.02 -220.68,540.09 -220.68,873.07z"/>
   <path class="fil0" d="M7883.02 515.42l195.32 0c1433.72,0 2319.48,1688.48 1462.45,2946.82 -598.23,878.35 -1924.52,1092.53 -2835.25,261.9 -208.34,-190 -430.71,-575.12 -504.28,-862.9 -187.49,-733.58 80.7,-1498.18 659.38,-1961.97 197.43,-158.23 677.71,-383.85 1022.38,-383.85zm-2265.62 1835.93c0,321.29 99.06,731.99 207.83,964.05 328.09,699.89 871.14,1188.01 1626.39,1381.41 883.66,226.29 1557.14,-79.94 2190.1,-586.77 82.89,-66.39 204.63,-214.97 278.98,-306.96 522.23,-646.28 601.48,-1693.47 241.79,-2442.14 -357.01,-743.09 -1171.3,-1353.34 -2006.02,-1353.34l-25.88 0 -85.84 0c-467.18,0.4 -613.66,12.02 -1112.43,260.23 -787.61,391.97 -1314.92,1232.68 -1314.92,2083.52z"/>
   <path class="fil0" d="M12843.97 9656.04c-651.06,0 -710.48,-1132.82 39.06,-1132.82 138.73,0 305.92,90.68 379.63,167.24 222.6,231.14 198.29,584.53 2.03,800.37 -92.36,101.59 -237.76,165.21 -420.72,165.21zm-1015.62 -664.07l0 195.32c0,494.11 449.06,976.56 1054.68,976.56 1394.6,0 1367.78,-2148.43 0,-2148.43 -589.07,0 -1054.68,502.95 -1054.68,976.55z"/>
   <path class="fil0" d="M12062.72 11843.55c0,-378.49 546.88,-378.49 546.88,0 0,396.44 -546.88,396.44 -546.88,0zm-507.82 -117.2l0 195.32c0,512.4 750.39,1052.47 1300.68,519.41 359.98,-348.72 359.6,-844.77 0.13,-1195.23 -550.72,-536.91 -1300.81,48.16 -1300.81,480.5z"/>
   <path class="fil0" d="M10148.65 10398.23c-127.07,-85.1 -87,-64.46 -156.25,-195.31 44.68,-84.46 68.07,-195.32 195.32,-195.32 164.46,0 318.47,307.33 -39.07,390.63zm-664.06 -195.31c0,340.45 311.66,703.12 703.13,703.12 880.68,0 935.4,-1406.25 0,-1406.25 -389.33,0 -703.13,324.41 -703.13,703.13z"/>
  </g>
 </g>
</svg>
