<?xml version="1.0" encoding="UTF-8"?>
<!DOCTYPE svg PUBLIC "-//W3C//DTD SVG 1.1//EN" "http://www.w3.org/Graphics/SVG/1.1/DTD/svg11.dtd">
<!-- Creator: CorelDRAW 2020 (64-Bit) -->
<svg xmlns="http://www.w3.org/2000/svg" xml:space="preserve" width="194mm" height="207.15mm" version="1.1" style="shape-rendering:geometricPrecision; text-rendering:geometricPrecision; image-rendering:optimizeQuality; fill-rule:evenodd; clip-rule:evenodd"
viewBox="0 0 19400 20715"
 xmlns:xlink="http://www.w3.org/1999/xlink"
 xmlns:xodm="http://www.corel.com/coreldraw/odm/2003">
 <defs>
  <style type="text/css">
   <![CDATA[
    .fil0 {fill:#1A76D1;fill-rule:nonzero}
   ]]>
  </style>
 </defs>
 <g id="Layer_x0020_1">
  <metadata id="CorelCorpID_0Corel-Layer"/>
  <g id="_2656659819744">
   <path class="fil0" d="M11127.11 217.45c-30.68,-70.38 1.5,-152.3 71.88,-182.97 70.38,-30.68 152.3,1.5 182.97,71.88 77.42,176.99 153.67,344.75 227.93,504.97 2.15,4.09 4.12,8.31 5.88,12.67l0.04 0.11c71.75,154.64 141.65,302.28 208.96,444.48 120.47,254.49 232.76,491.73 334.41,724.01 204.32,377.65 386.24,649.56 551.07,895.86 346.03,517.07 619.39,925.56 864.65,1914.55 470.11,1895.64 291.84,3989.79 13.68,6107.09 17.34,32.3 12.69,73.04 -13.3,100.63 -47.41,357.12 -97.41,714.83 -147.37,1072.26 -104.09,744.56 -208.01,1487.98 -287.69,2221.36 -88.77,817.07 -327.55,1416.66 -737.64,1905.73 -405.03,483.04 -973.25,851.67 -1726.97,1212.37 -206.9,121.3 -387.03,235.19 -495.15,326.41 -1488.26,1255.66 -4324.08,1928.56 -6742.13,2502.33 -957.22,227.13 -1848.42,438.6 -2557.91,663.02 -73.38,23.15 -151.65,-17.57 -174.81,-90.95 -23.15,-73.37 17.57,-151.64 90.94,-174.8 719.52,-227.59 1615.33,-440.16 2577.51,-668.46 2388.77,-566.82 5190.24,-1231.57 6626.7,-2443.51 209.88,-177.08 636.42,-415.27 1038.71,-639.89 2.08,-1.17 -11.11,6.22 158.46,-88.93 421.2,-236.35 647.57,-477.06 762.5,-768.88 118.32,-300.39 126.73,-667.4 108.78,-1142.17 -8.11,-214.36 -8.78,-415.03 -1.03,-628.71 7.73,-213.01 23.85,-438.49 49.33,-703.06 75.13,-779.77 147.38,-1551.87 208.33,-2346.07 60.18,-784.22 107.33,-1568.09 131.59,-2362.74 3.45,-113.32 7.04,-227.8 10.64,-343.19 52.04,-1666.11 110.08,-3524.34 -88.51,-4844.77 -86.84,-577.39 -252.96,-1053.43 -470.97,-1553.68 -168.2,-311.61 -350.97,-692.84 -550.95,-1185.83l-0.01 -0.04c-74.4,-160.6 -151.31,-329.95 -230.53,-511.06l0.01 -0.02zm8130.68 14622.55l-1497.81 0 0 713.88c0,76.99 -62.41,139.41 -139.41,139.41 -43.21,0 -81.83,-19.67 -107.4,-50.53l-1630.02 -1699.06c-51.97,-54.04 -51.56,-139.23 0.01,-192.77l1637.21 -1706.58c53.23,-55.34 141.25,-57.04 196.58,-3.82 28.37,27.29 42.64,63.72 42.64,100.21l0.39 0 0 713.88 1497.81 0c76.99,0 139.41,62.42 139.41,139.41l0 1706.57c0,76.99 -62.42,139.41 -139.41,139.41l0 -0.01zm-1637.22 -278.82l1497.81 0 0 -1427.75 -1497.81 0c-76.99,0 -139.4,-62.42 -139.4,-139.41l0 -507.14 -1305.14 1360.43 1305.14 1360.43 0 -507.14c0,-76.99 62.41,-139.41 139.4,-139.41l0 -0.01zm1637.22 -8065.06l-1497.81 0 0 713.88c0,77 -62.41,139.41 -139.41,139.41 -43.21,0 -81.83,-19.67 -107.4,-50.52l-1630.02 -1699.08c-51.97,-54.04 -51.56,-139.22 0.01,-192.77l1637.21 -1706.58c53.23,-55.33 141.25,-57.03 196.58,-3.81 28.37,27.28 42.64,63.72 42.64,100.2l0.39 0 0 713.89 1497.81 0c76.99,0 139.41,62.41 139.41,139.4l0 1706.57c0,77 -62.42,139.41 -139.41,139.41zm-1637.22 -278.81l1497.81 0 0 -1427.76 -1497.81 0c-76.99,0 -139.4,-62.41 -139.4,-139.41l0 -507.14 -1305.14 1360.43 1305.14 1360.44 0 -507.15c0,-76.99 62.41,-139.4 139.4,-139.4l0 -0.01zm-4694.7 7319.09l-584.12 698.44c-2.51,150.24 -0.64,297.36 5.21,451.96 14.95,395.41 11.94,723.54 -53.58,1011.99 310.53,-422.1 495.82,-939.07 570.22,-1623.87 19.45,-179.05 40.33,-358.58 62.28,-538.52l-0.01 0zm-574.47 415.73l614.39 -734.62c38.28,-298.72 78.97,-598.35 120.5,-898.41l-621.24 742.82c-11.41,13.63 -26.1,22.87 -41.96,27.57 -9.57,100.28 -19.22,200.77 -28.92,301.49 -20,207.51 -34.09,390.12 -42.77,561.16l0 -0.01zm98.3 -1143.03l681.86 -815.3 20.81 -148.94c34.04,-243.49 68.09,-487.1 101.31,-730.54l-711.08 670.8c-29.21,338.55 -60.48,679.91 -92.9,1023.98zm114.93 -1283.75l726.05 -684.92c48.27,-361.44 94.01,-722.25 134.46,-1081.44l-782.2 737.88c-12.36,181.39 -25.52,362.18 -39.36,542.57 -12.38,161.3 -25.4,323.27 -38.95,485.9l0 0.01zm95.11 -1283.29l794.42 -749.42c36.66,-348.7 67.68,-695.66 90.49,-1039.96l-830.73 783.65c-14.72,338.46 -33.03,673.26 -54.19,1005.73l0.01 0zm867.1 -2011.55c9.61,-9.04 20.74,-15.46 32.5,-19.31 18.33,-333.68 28.34,-664.64 27.68,-992.07l-831.37 784.27c-3.26,106.33 -6.56,212.07 -9.84,317.06 -3.6,115.39 -7.18,229.87 -10.64,343.19 -3.32,108.48 -7.03,216.52 -11.12,324.16l802.79 -757.3zm37.21 -1228.68c6.31,-5.95 13.28,-10.75 20.66,-14.44 -5.51,-308.18 -21,-613.03 -48.58,-913.81l-748.73 706.3c-6.08,326.64 -14.79,654.11 -24.33,977.55l800.98 -755.59 0 -0.01zm-772.63 -464.72l722.46 -681.54c-38.39,-342.25 -93.15,-678.98 -167.36,-1009.09l-552.78 660.95c4.16,336.94 2.67,682.14 -2.32,1029.67l0 0.01zm-2.24 -1295.39l507.11 -606.34c-209.9,-832.02 -442.4,-1227.67 -727.54,-1658.25 33.86,143.91 62.82,292.95 86.38,449.55 80.53,535.5 119.55,1155.96 134.06,1815.05l-0.01 -0.01zm-3675.72 9010.49c19.55,-43.8 70.9,-63.45 114.71,-43.91 43.79,19.55 63.45,70.9 43.9,114.71 -139.37,310.36 -361.61,584.25 -623.08,813.91 -298.87,262.52 -649.68,467.73 -986.07,603.51 -44.55,17.85 -95.14,-3.79 -113,-48.34 -17.85,-44.55 3.79,-95.14 48.34,-113 319.72,-129.04 652.89,-323.86 936.38,-572.86 243.86,-214.2 450.46,-468.14 578.83,-754.01l-0.01 -0.01zm-1203.57 241.43c3.15,-1.81 6.35,-3.48 9.56,-5.02 1.62,-1.16 3.26,-2.31 4.93,-3.42 210.81,-140.31 357.18,-316.22 455.42,-488.52 143.21,-251.15 183.84,-485.77 172.59,-590.16 -149.57,-1387.66 -309.61,-2677.84 -517.74,-3982.41 -207.98,-1303.68 -464.92,-2627.08 -808.76,-4084.27 -112.61,-477.26 -98.33,-909.79 12.34,-1291.53 134.09,-462.49 409.05,-846.96 771.02,-1143.87 358.27,-293.87 801.25,-501.58 1275.92,-613.58 585.4,-138.13 1221.8,-131.16 1808.73,39 73.68,21.35 116.1,98.4 94.75,172.08 -21.35,73.69 -98.41,116.11 -172.08,94.75 -539.67,-156.46 -1126.7,-162.42 -1668.23,-34.64 -434.92,102.61 -838.68,291.2 -1162.65,556.95 -320.28,262.71 -563.07,601.19 -680.62,1006.64 -97.58,336.59 -109.28,721.71 -7.99,1151.03 344.15,1458.49 602.22,2788.77 812.03,4103.88 209.66,1314.23 370.25,2608 519.91,3996.57 15.39,142.7 -32.22,449.5 -207.43,756.8 -117.34,205.78 -292.08,415.83 -543.65,583.26 -6.45,4.27 -13.15,7.92 -19.99,10.99 -3.13,2.16 -6.38,4.22 -9.74,6.16 -672.08,387.4 -1376.31,638.87 -1805.92,792.27 -95.91,34.24 -180.3,64.37 -208.76,75.01 -915.4,342.02 -1835.45,807.39 -2765.84,1368.28 -932.11,561.91 -1873.24,1219.13 -2829.58,1943.9 -61.35,46.31 -148.64,34.12 -194.95,-27.23 -46.31,-61.35 -34.13,-148.64 27.22,-194.95 552.82,-418.96 1100.73,-815.58 1644.96,-1184.66l190.06 -5413.8c-586.95,-258.33 -1112.32,-639.24 -1491.02,-1099.28 -485.43,-589.69 -731.72,-1308.59 -565.36,-2068.81 14.37,-65.65 32.05,-132.2 53.15,-199.58 399.73,-1276.58 2010.48,-2377.02 3536.42,-3419.52 817.77,-558.67 1610.71,-1100.41 2164.9,-1633.98 460.68,-443.54 870.92,-870.24 1164.19,-1411.48 292.49,-539.79 472.89,-1200.01 478.4,-2116.48 0.3,-76.69 62.71,-138.62 139.4,-138.32 76.7,0.3 138.62,62.71 138.33,139.41 -5.83,968.76 -198.57,1670.42 -511.08,2247.17 -311.72,575.28 -738.37,1019.78 -1216.47,1480.09 -571.55,550.29 -1373.65,1098.27 -2200.83,1663.4 -1487.05,1015.91 -3056.72,2088.29 -3427.51,3272.47 -18.21,58.17 -33.72,116.74 -46.6,175.63 -146.49,669.4 74.27,1307.12 507.62,1833.55 442.08,537.03 1103.51,959.01 1825.77,1185.17 114.35,35.8 230.82,66.77 348.78,92.58 75.19,16.24 122.97,90.37 106.73,165.55 -16.24,75.19 -90.36,122.97 -165.54,106.73 -124.79,-27.3 -249.27,-60.47 -372.73,-99.12 -64.6,-20.23 -128.75,-41.98 -192.37,-65.13l-179.5 5112.95c309.01,-204.47 616.89,-399.73 923.87,-584.79 942.3,-568.06 1877.54,-1040.66 2812.68,-1390.07 89.5,-33.43 146.79,-53.9 212.02,-77.19 422.77,-150.96 1115.8,-398.42 1761.25,-770.48l-0.01 0.02z"/>
  </g>
 </g>
</svg>
