<svg xmlns="http://www.w3.org/2000/svg" version="1.1" viewBox="-5.0 -10.0 110.0 135.0">
 <path d="m11.059 30.262c0.64453-1.1992 2.8711-1.5586 7.4453-2.1914 3.4609-0.48047 7.7656-1.082 10.484-2.3281 0.46094-0.20703 0.99609-0.007813 1.207 0.45312 0.20703 0.45703 0.007813 1-0.44922 1.207-2.9648 1.3555-7.2305 1.9492-10.992 2.4727-2.3789 0.32812-5.6367 0.78125-6.1172 1.293-0.16406 0.30078-0.46094 0.46484-0.77734 0.46484-0.14844 0-0.30078-0.035156-0.44531-0.11328-0.44141-0.24219-0.59375-0.8125-0.35547-1.2578zm16.25-8.168c0.0625 0.011719 0.125 0.015625 0.1875 0.011719 9.6484-0.35938 11.938 0.96484 18.039 4.5195 0.97656 0.57031 2.0508 1.1953 3.2617 1.875 5.4766 3.0742 12.527 6.918 18.805 9.5977 1.4219 3.5977 3.9648 7.1289 8.4727 10.715 0.16797 0.13281 0.36719 0.19922 0.56641 0.19922 0.26953 0 0.53516-0.11719 0.71484-0.34375 0.3125-0.39453 0.24609-0.96875-0.14453-1.2812-4.3242-3.4336-6.7109-6.7695-8.0156-10.215-0.015624-0.050781-0.027343-0.09375-0.050781-0.13672-1.5938-4.3125-1.5195-8.7969-1.4297-13.867 0.089844-5.1289 0.19141-10.941-1.582-17.48-0.13281-0.48438-0.63281-0.77344-1.1172-0.64062s-0.77344 0.63281-0.64062 1.1172c1.7031 6.2852 1.6094 11.719 1.5195 16.969-0.078125 4.4453-0.14844 8.6016 0.94141 12.641-5.8125-2.5977-12.137-6.0508-17.145-8.8633-1.2031-0.67578-2.2656-1.293-3.2383-1.8594-6.2344-3.6289-8.8281-5.1406-18.93-4.7656-5.5039-0.96875-7.7305-5.6367-6.8125-14.266 0.054687-0.5-0.30859-0.94922-0.80859-1-0.5-0.054687-0.94922 0.30859-1.0039 0.80859-1.0312 9.6797 1.7969 15.152 8.4102 16.266zm49.848-16.609c-0.24219-0.44141-0.79297-0.60547-1.2344-0.36719-0.44141 0.24219-0.60547 0.79687-0.36328 1.2344 8.1992 15.098 12.543 30.105 12.906 44.621 0.03125 1.5469-0.33594 2.668-1.1289 3.4219-1.0391 0.98438-2.8789 1.3945-5.4688 1.207-0.035157-0.003906-0.066407-0.003906-0.10156-0.003906-0.94141 0.039063-1.8711 0.10547-2.7969 0.18359-0.14844-0.26953-0.41406-0.47266-0.74219-0.48438l-0.5625-0.023437-0.54297-0.039063-0.56641-0.023437-0.15234-0.019532c-0.51953-0.023437-0.95312 0.36719-0.97656 0.86719-0.003906 0.03125 0.011719 0.058594 0.011719 0.09375-2.2148 0.26953-4.3906 0.60156-6.5234 0.92969-4.7109 0.72656-9.1602 1.4062-13.711 1.4297h-0.14453c-5.8633 0-7.6133-1.4023-10.027-3.3359-1.7656-1.4141-3.75-3.0039-7.6133-4.3555 0.63281-0.99609 1.2227-2.0977 1.7656-3.3008 0.20703-0.45703 0.003906-1-0.45312-1.207s-1-0.003906-1.207 0.45703c-2.0078 4.4414-4.6133 7.3203-7.7383 8.5508-3.9531 1.5195-15.344 0.46094-18.73-1.3203-0.44531-0.23047-0.99609-0.0625-1.2305 0.38281-0.23438 0.44531-0.0625 0.99219 0.38281 1.2305 2.5156 1.3242 8.5078 2.2617 13.602 2.2617 2.6719 0 5.0938-0.25781 6.6367-0.85156 2.2188-0.87109 4.1875-2.4297 5.8867-4.6406 0.32031 0.10547 0.62891 0.21484 0.92188 0.32031-0.46094 1.5078-0.92969 2.9961-1.3906 4.4609-3.8125 12.078-7.4102 23.484-4.1211 37.145 0.10156 0.41797 0.47266 0.69922 0.88672 0.69922 0.070313 0 0.14062-0.007812 0.21484-0.023437 0.48828-0.11719 0.78906-0.60938 0.67188-1.0977-3.1719-13.172 0.19141-23.828 4.0898-36.172 0.44531-1.418 0.89844-2.8555 1.3438-4.3086 2.2539 1.0391 3.6641 2.1641 4.9453 3.1953 2.5 2.0078 4.6641 3.7383 11.176 3.7383h0.14453c4.6875-0.023438 9.1992-0.71875 13.977-1.4453 4.0742-0.625 8.293-1.2734 12.602-1.457 3.1406 0.21875 5.3633-0.33984 6.8008-1.7109 1.168-1.1094 1.7383-2.7148 1.6914-4.7773-0.37109-14.824-4.7891-30.113-13.129-45.465zm-20.672 46.578-0.64844-0.17188-0.62891-0.19531-0.30469-0.089843c-0.5-0.13281-1 0.15234-1.1484 0.62891-0.13281 0.5 0.15234 1 0.62891 1.1523l0.30469 0.085937 0.64844 0.17578 0.67187 0.19531 0.17188 0.042969c0.47656 0.13281 1-0.17188 1.1289-0.64844 0.10938-0.5-0.17188-1-0.67188-1.1289zm-6.8984-2.1914-0.5-0.17188-0.5-0.19531-0.47656-0.17578-0.10938-0.042969c-0.47656-0.17578-0.99609 0.0625-1.1719 0.53906-0.19531 0.48047 0.042969 1.0195 0.51953 1.1953l0.10938 0.039063 0.5 0.17578 0.5 0.17188 0.5 0.19531 0.15234 0.042969c0.47656 0.17188 1-0.085937 1.1719-0.5625 0.15234-0.48047-0.085938-0.99609-0.5625-1.1719zm13.797 3.7734-0.39062-0.085937-0.39063-0.0625-0.39062-0.085938-0.26172-0.046875c-0.5-0.10547-0.97656 0.21875-1.0859 0.71875-0.085937 0.5 0.23828 0.97656 0.71484 1.0859l0.26172 0.042969 0.39062 0.089843 0.41016 0.066407 0.41016 0.085937 0.34766 0.0625c0.5 0.085937 0.97656-0.23828 1.0859-0.73828 0.085937-0.5-0.26172-0.97656-0.76172-1.0625zm7.5312 1.0859-0.47656-0.042969-0.47656-0.0625-0.47656-0.042969-0.34766-0.042969c-0.49609-0.066406-0.95312 0.28125-1.0195 0.78125-0.0625 0.51953 0.30469 0.97656 0.80469 1.0391l0.34766 0.042969 0.47656 0.042968 0.47656 0.066407 0.5 0.039062h0.042969c0.5 0.066407 0.95312-0.30469 0.99609-0.80078 0.0625-0.51953-0.30469-0.95703-0.82422-1.0195zm-28.355-7.4414-0.36719-0.13281-0.39062-0.10938-0.36719-0.12891-0.36719-0.10547h-0.042968c-0.47656-0.15234-0.99609 0.12891-1.1289 0.62891-0.15234 0.47656 0.13281 0.99609 0.62891 1.1289l0.019531 0.019532 0.34766 0.089844 0.36719 0.10937 0.34766 0.13281 0.36719 0.10938 0.23828 0.085938c0.47656 0.17578 0.99609-0.085938 1.1719-0.5625 0.17578-0.48047-0.085937-1-0.5625-1.1719zm1.4453 14.715h-0.003906c-0.16406-0.16406-0.39062-0.26562-0.64062-0.26562s-0.47656 0.10156-0.64062 0.26562h-0.003906l-2.082 2.0859c-0.35547 0.35547-0.35547 0.93359 0 1.2891 0.35547 0.35547 0.93359 0.35547 1.2891 0l0.52734-0.53125v7.1758c0 0.50391 0.40625 0.91016 0.91016 0.91016s0.91016-0.40625 0.91016-0.91016v-7.1758l0.52734 0.53125c0.17969 0.17578 0.41016 0.26562 0.64453 0.26562s0.46484-0.085937 0.64453-0.26562c0.35547-0.35938 0.35547-0.9375 0-1.2891zm36.273 0h-0.003906c-0.16406-0.16406-0.39063-0.26562-0.64063-0.26562-0.25391 0-0.47656 0.10156-0.64453 0.26562h-0.003906l-2.082 2.0859c-0.35547 0.35547-0.35547 0.93359 0 1.2891 0.35547 0.35547 0.93359 0.35547 1.2891 0l0.52734-0.53125v7.1758c0 0.50391 0.40625 0.91016 0.91016 0.91016s0.91016-0.40625 0.91016-0.91016v-7.1758l0.52734 0.53125c0.17969 0.17578 0.41016 0.26562 0.64453 0.26562 0.23437 0 0.46875-0.085937 0.64453-0.26562 0.35547-0.35938 0.35547-0.9375 0-1.2891zm-18.137 0.47656c0-0.003907-0.003906-0.003907-0.007813-0.003907-0.082031-0.078124-0.17969-0.14844-0.28906-0.19141-0.22266-0.09375-0.47266-0.09375-0.69531 0-0.10938 0.046875-0.20703 0.11328-0.28906 0.19141 0 0.003907-0.003906 0.003907-0.007813 0.003907l-2.082 2.082c-0.35547 0.35547-0.35547 0.93359 0 1.2891 0.35547 0.35547 0.93359 0.35547 1.2891 0l0.52734-0.52734v7.1719c0 0.50391 0.40625 0.91016 0.91016 0.91016s0.91016-0.41016 0.91016-0.91016v-7.1719l0.52734 0.52734c0.17969 0.17969 0.41016 0.26563 0.64453 0.26563s0.46484-0.089844 0.64453-0.26563c0.35547-0.35547 0.35547-0.93359 0-1.2891z"/>
<text x="0.0" y="117.5" font-size="5.0" font-weight="bold" font-family="Arbeit Regular, Helvetica, Arial-Unicode, Arial, Sans-serif" fill="#1a76d1">Created by fatmawati</text><text x="0.0" y="122.5" font-size="5.0" font-weight="bold" font-family="Arbeit Regular, Helvetica, Arial-Unicode, Arial, Sans-serif" fill="#000000">from Noun Project</text></svg>
