<?xml version="1.0" encoding="UTF-8"?>
<!DOCTYPE svg PUBLIC "-//W3C//DTD SVG 1.1//EN" "http://www.w3.org/Graphics/SVG/1.1/DTD/svg11.dtd">
<!-- Creator: CorelDRAW 2020 (64-Bit) -->
<svg xmlns="http://www.w3.org/2000/svg" xml:space="preserve" width="196mm" height="136.785mm" version="1.1" style="shape-rendering:geometricPrecision; text-rendering:geometricPrecision; image-rendering:optimizeQuality; fill-rule:evenodd; clip-rule:evenodd"
viewBox="0 0 19600 13678.5"
 xmlns:xlink="http://www.w3.org/1999/xlink"
 xmlns:xodm="http://www.corel.com/coreldraw/odm/2003">
 <defs>
  <style type="text/css">
   <![CDATA[
    .fil0 {fill:#1A76D1;fill-rule:nonzero}
   ]]>
  </style>
 </defs>
 <g id="Layer_x0020_1">
  <metadata id="CorelCorpID_0Corel-Layer"/>
  <g id="_2691934987568">
   <g>
    <path class="fil0" d="M13093.87 13680.33c-74.78,0 -141.24,-58.16 -145.39,-137.08 0,-16.62 -120.47,-1823.58 -324.01,-3813.32 -203.54,-1952.36 -805.87,-3497.63 -1711.43,-5354.44 -33.22,-70.62 -4.15,-157.86 66.47,-195.23 70.61,-33.23 157.85,-4.15 195.23,66.46 918.01,1885.89 1532.8,3456.08 1736.34,5454.13 207.7,1998.05 324.01,3809.17 328.16,3825.78 4.15,78.92 -54,149.55 -137.07,153.7 -4.15,0 -8.3,0 -8.3,0z"/>
   </g>
   <g>
    <path class="fil0" d="M10476.87 7445.25c-1707.27,0 -4361.63,-614.78 -6500.92,-1354.18 -1316.8,-456.94 -3792.56,-191.09 -3817.48,-186.94 -78.92,8.31 -153.69,-49.84 -162,-128.77 -8.31,-78.94 49.84,-153.7 128.78,-162.01 103.85,-12.46 2562.98,-278.31 3946.25,199.39 2550.53,884.79 6006.61,1620.04 7377.41,1237.88 78.92,-20.77 157.86,24.93 178.62,99.69 20.77,78.92 -24.93,157.85 -99.69,178.62 -282.48,78.94 -639.73,116.32 -1050.97,116.32z"/>
   </g>
   <g>
    <path class="fil0" d="M3419.32 2364.97c-1412.34,0 -3223.46,-452.77 -3314.85,-473.55 -78.92,-20.77 -124.62,-99.69 -103.85,-174.46 20.76,-78.92 99.69,-124.62 174.46,-103.85 24.93,8.31 2575.45,643.86 3929.63,415.4 535.86,-87.23 1246.19,-137.08 2002.2,-186.93 1212.95,-78.93 2587.91,-170.32 3443.63,-461.09 103.84,-33.22 274.16,-99.69 490.16,-186.93 573.24,-224.32 1445.57,-560.79 2392.67,-847.41 1840.2,-556.62 3605.62,-274.16 3680.4,-261.69 78.92,12.46 132.92,87.23 120.47,166.15 -12.46,78.92 -87.24,132.93 -166.16,120.47 -16.62,-4.15 -1777.88,-282.47 -3547.47,253.4 -938.78,282.47 -1802.81,618.94 -2371.9,839.09 -220.16,87.23 -394.62,153.7 -502.63,191.08 -893.11,303.24 -2288.83,394.63 -3518.4,477.71 -747.7,49.84 -1453.87,95.54 -1973.12,182.77 -224.3,33.23 -469.39,49.84 -735.24,49.84z"/>
   </g>
   <g>
    <path class="fil0" d="M16246.71 12101.82c-535.86,0 -1104.96,-87.23 -1649.12,-257.54 -1113.26,-344.78 -1865.13,-934.64 -1914.97,-1495.43 -8.31,-78.92 49.84,-149.54 132.92,-157.85 78.93,-8.31 149.55,49.84 157.86,132.93 37.39,423.69 760.17,947.09 1711.43,1246.18 1217.11,378.02 2970.08,423.7 3908.87,-706.17 585.7,-702.02 714.48,-1939.88 714.48,-1952.35 8.3,-78.93 78.92,-137.08 157.85,-128.78 78.92,8.31 137.08,78.92 128.78,157.85 -4.15,54.01 -137.08,1337.57 -780.95,2110.2 -461.08,552.48 -1146.48,905.56 -1981.43,1013.56 -182.78,24.94 -382.17,37.4 -585.72,37.4z"/>
   </g>
   <g>
    <g>
     <path class="fil0" d="M4686.28 5787.83c-4.15,0 -8.31,0 -8.31,0 -91.39,-12.46 -174.47,-20.77 -249.24,-33.23 -45.69,-8.31 -78.92,-49.85 -70.61,-95.54 4.15,-45.7 49.84,-78.92 95.54,-70.61 70.61,8.31 153.69,20.76 245.09,33.22 45.69,4.15 78.92,45.7 70.61,91.39 -4.16,45.69 -41.55,74.77 -83.08,74.77z"/>
    </g>
    <g>
     <path class="fil0" d="M10738.58 6282.15c-4.16,0 -4.16,0 0,0 -157.86,-8.31 -328.16,-16.62 -510.94,-24.93 -45.7,-4.15 -78.92,-41.54 -78.92,-87.23 4.15,-45.7 41.53,-83.08 87.23,-78.92 182.77,8.3 353.08,16.61 502.63,24.92 45.7,0 83.08,41.54 78.92,87.23 0,45.69 -37.38,78.93 -78.92,78.93zm-1013.57 -49.86c0,0 -4.15,0 -4.15,0 -166.15,-8.31 -332.32,-20.77 -506.78,-33.23 -45.7,-4.14 -78.92,-41.53 -78.92,-87.23 4.15,-45.69 41.53,-78.92 87.23,-78.92 170.31,12.46 340.63,20.77 502.63,33.23 45.7,4.15 78.92,41.53 78.92,87.23 4.15,41.55 -33.24,78.92 -78.93,78.92zm-1009.41 -70.61c0,0 -4.15,0 -4.15,0 -166.15,-12.46 -336.47,-24.93 -506.78,-37.39 -45.7,-4.15 -78.92,-41.53 -74.77,-91.39 4.15,-45.7 41.53,-78.92 87.23,-74.77 170.31,12.46 336.46,24.93 502.63,37.38 45.69,4.15 78.92,41.54 74.77,87.24 4.15,45.7 -33.24,78.93 -78.93,78.93zm-1005.25 -78.92c-4.15,0 -4.15,0 -8.31,0 -170.32,-12.46 -336.47,-29.08 -502.63,-41.54 -45.7,-4.15 -78.92,-45.69 -74.78,-91.39 4.15,-45.7 45.7,-78.92 91.4,-74.77 166.15,12.45 332.31,29.07 502.63,41.53 45.69,4.15 78.92,45.7 74.77,91.39 -4.16,41.54 -41.55,74.78 -83.08,74.78zm-1009.41 -87.23c-4.15,0 -4.15,0 -8.31,0 -174.46,-16.62 -340.63,-33.23 -502.63,-45.7 -45.7,-4.15 -78.93,-45.7 -74.78,-91.39 4.15,-45.7 45.7,-78.92 91.4,-74.77 162,16.61 332.31,33.22 502.63,45.69 45.69,4.15 78.92,45.7 74.77,91.39 -4.16,41.54 -41.55,74.78 -83.08,74.78zm-1009.41 -95.55c-4.15,0 -4.15,0 -8.31,0 -178.63,-16.61 -348.94,-37.38 -502.63,-54 -45.7,-4.15 -78.93,-45.7 -74.78,-91.39 4.15,-45.7 45.7,-78.92 91.39,-74.77 153.7,16.61 324.01,33.22 502.64,54 45.69,4.15 78.92,45.7 74.77,91.39 -4.15,41.54 -37.39,74.77 -83.08,74.77z"/>
    </g>
    <g>
     <path class="fil0" d="M11486.29 6302.91c-78.93,0 -162.01,0 -249.24,-4.14 -45.7,0 -83.08,-37.39 -83.08,-83.09 0,-45.69 37.38,-83.08 83.08,-83.08 87.23,0 170.31,4.15 249.24,4.15 45.69,0 83.08,37.39 83.08,83.08 0,45.7 -37.39,83.08 -83.08,83.08z"/>
    </g>
   </g>
   <g>
    <path class="fil0" d="M16093.01 9127.59c-589.86,0 -589.86,913.87 0,913.87 585.71,0 589.86,-913.87 0,-913.87z"/>
   </g>
  </g>
 </g>
</svg>
