<svg xmlns="http://www.w3.org/2000/svg" xmlns:xlink="http://www.w3.org/1999/xlink" xmlns:xodm="http://www.corel.com/coreldraw/odm/2003" xml:space="preserve" version="1.1" style="shape-rendering:geometricPrecision;text-rendering:geometricPrecision;image-rendering:optimizeQuality;" viewBox="0 0 60000 75000" x="0px" y="0px" fill-rule="evenodd" clip-rule="evenodd"><defs><style type="text/css">
   
    .fil0 {fill:black;fill-rule:nonzero}
   
  </style></defs><g><path class="fil0" d="M34096.94 894.75c-88.02,-201.93 4.32,-436.99 206.25,-525.01 201.93,-88.02 436.99,4.32 525.01,206.25 222.14,507.84 440.9,989.16 653.99,1448.9 6.16,11.71 11.8,23.82 16.87,36.34l0.12 0.3c205.88,443.71 406.44,867.34 599.57,1275.33 345.67,730.21 667.87,1410.91 959.52,2077.41 586.25,1083.6 1108.27,1863.77 1581.21,2570.49 992.85,1483.63 1777.21,2655.72 2480.95,5493.43 1348.89,5439.14 837.36,11447.89 39.23,17523.06 49.76,92.67 36.42,209.56 -38.14,288.71 -136.03,1024.69 -279.5,2051.05 -422.87,3076.65 -298.65,2136.33 -596.84,4269.42 -825.46,6373.7 -254.7,2344.42 -939.86,4064.83 -2116.52,5468.1 -1162.15,1385.99 -2792.54,2443.68 -4955.19,3478.65 -593.67,348.02 -1110.49,674.84 -1420.71,936.58 -4270.29,3602.86 -12407.08,5533.61 -19345.21,7179.91 -2746.55,651.71 -5303.67,1258.48 -7339.39,1902.39 -210.55,66.44 -435.12,-50.39 -501.56,-260.94 -66.44,-210.55 50.39,-435.12 260.94,-501.56 2064.52,-653.02 4634.86,-1262.93 7395.63,-1918.01 6854.09,-1626.36 14892.33,-3533.73 19013.97,-7011.17 602.21,-508.09 1826.09,-1191.5 2980.36,-1836.02 5.97,-3.33 -31.88,17.85 454.66,-255.16 1208.58,-678.14 1858.08,-1368.84 2187.87,-2206.14 339.49,-861.92 363.64,-1914.96 312.11,-3277.23 -23.25,-615.07 -25.2,-1190.84 -2.95,-1803.95 22.18,-611.19 68.42,-1258.16 141.55,-2017.28 215.57,-2237.41 422.86,-4452.76 597.74,-6731.56 172.68,-2250.17 307.97,-4499.3 377.58,-6779.41 9.92,-325.14 20.2,-653.62 30.53,-984.71 149.32,-4780.56 315.85,-10112.36 -253.97,-13901.08 -249.17,-1656.7 -725.83,-3022.59 -1351.33,-4457.98 -482.64,-894.1 -1007.06,-1987.98 -1580.86,-3402.51l-0.04 -0.11c-213.46,-460.79 -434.15,-946.71 -661.46,-1466.37zm23329.35 41956.41l-4297.65 0 0 2048.33c0,220.91 -179.09,400 -400,400 -123.99,0 -234.79,-56.42 -308.16,-144.98l-4677 -4875.12c-149.14,-155.05 -147.95,-399.48 0.02,-553.1l4697.64 -4896.69c152.73,-158.78 405.28,-163.67 564.06,-10.94 81.4,78.29 122.33,182.82 122.34,287.5l1.1 0 0 2048.34 4297.65 0c220.91,0 400,179.09 400,400l0 4896.66c0,220.91 -179.09,400 -400,400zm-4697.65 -800l4297.65 0 0 -4096.66 -4297.65 0c-220.91,0 -400,-179.09 -400,-400l0 -1455.15 -3744.84 3903.48 3744.84 3903.48 0 -1455.15c0,-220.91 179.09,-400 400,-400zm4697.65 -23141.05l-4297.65 0 0 2048.33c0,220.91 -179.09,400 -400,400 -123.99,0 -234.79,-56.42 -308.16,-144.98l-4677 -4875.13c-149.14,-155.05 -147.95,-399.48 0.02,-553.1l4697.64 -4896.68c152.73,-158.78 405.28,-163.67 564.06,-10.94 81.4,78.29 122.33,182.82 122.34,287.5l1.1 0 0 2048.33 4297.65 0c220.91,0 400,179.09 400,400l0 4896.67c0,220.91 -179.09,400 -400,400zm-4697.65 -800l4297.65 0 0 -4096.67 -4297.65 0c-220.91,0 -400,-179.09 -400,-400l0 -1455.15 -3744.84 3903.48 3744.84 3903.48 0 -1455.14c0,-220.91 179.09,-400 400,-400zm-13470.5 21000.66l-1676.04 2004.03c-7.19,431.09 -1.84,853.21 14.93,1296.79 42.91,1134.54 34.26,2076.07 -153.74,2903.7 891.04,-1211.15 1422.67,-2694.48 1636.14,-4659.36 55.81,-513.73 115.71,-1028.88 178.71,-1545.16zm-1648.34 1192.85l1762.89 -2107.87c109.83,-857.12 226.57,-1716.84 345.74,-2577.81l-1782.55 2131.38c-32.72,39.1 -74.89,65.64 -120.37,79.1 -27.47,287.71 -55.16,576.06 -83,865.06 -57.37,595.41 -97.79,1119.38 -122.71,1610.14zm282.05 -3279.71l1956.46 -2339.32 59.72 -427.36c97.67,-698.64 195.36,-1397.64 290.69,-2096.12l-2040.32 1924.71c-83.8,971.4 -173.51,1950.87 -266.55,2938.09zm329.78 -3683.44l2083.25 -1965.22c138.48,-1037.08 269.73,-2072.33 385.81,-3102.96l-2244.37 2117.2c-35.47,520.46 -73.23,1039.19 -112.95,1556.81 -35.52,462.8 -72.86,927.53 -111.74,1394.17zm272.89 -3682.16l2279.44 -2150.29c105.19,-1000.55 194.19,-1996.07 259.66,-2983.96l-2383.62 2248.55c-42.23,971.13 -94.76,1931.77 -155.48,2885.7zm2487.96 -5771.72c27.57,-25.94 59.5,-44.37 93.25,-55.4 52.59,-957.42 81.31,-1907.05 79.44,-2846.53l-2385.45 2250.29c-9.35,305.08 -18.83,608.49 -28.24,909.73 -10.33,331.09 -20.61,659.57 -30.53,984.71 -9.5,311.26 -20.16,621.25 -31.89,930.1l2303.42 -2172.9zm106.77 -3525.46c18.12,-17.05 38.12,-30.84 59.28,-41.44 -15.82,-884.25 -60.26,-1758.96 -139.4,-2621.99l-2148.32 2026.59c-17.47,937.22 -42.45,1876.84 -69.82,2804.88l2298.26 -2168.04zm-2216.92 -1333.42l2072.98 -1955.53c-110.18,-982 -267.29,-1948.17 -480.24,-2895.37l-1586.08 1896.46c11.94,966.8 7.65,1957.28 -6.66,2954.44zm-6.43 -3716.85l1455.05 -1739.78c-602.27,-2387.32 -1269.36,-3522.55 -2087.52,-4758.01 97.14,412.9 180.24,840.58 247.82,1289.89 231.09,1536.51 343.04,3316.79 384.65,5207.9zm-10546.71 25853.77c56.09,-125.66 203.44,-182.07 329.1,-125.98 125.66,56.09 182.07,203.44 125.98,329.1 -399.89,890.53 -1037.58,1676.4 -1787.81,2335.37 -857.54,753.23 -1864.11,1342.06 -2829.31,1731.62 -127.82,51.23 -272.99,-10.86 -324.22,-138.68 -51.23,-127.82 10.86,-272.99 138.68,-324.22 917.38,-370.26 1873.33,-929.26 2686.73,-1643.72 699.7,-614.59 1292.51,-1343.22 1660.85,-2163.49zm-3453.39 692.73c9.03,-5.19 18.19,-9.98 27.43,-14.39 4.63,-3.35 9.33,-6.64 14.14,-9.83 604.89,-402.57 1024.86,-907.3 1306.75,-1401.69 410.89,-720.63 527.49,-1393.83 495.21,-1693.35 -429.16,-3981.63 -888.37,-7683.55 -1485.55,-11426.72 -596.78,-3740.67 -1333.99,-7537.88 -2320.57,-11719 -323.11,-1369.39 -282.14,-2610.46 35.4,-3705.78 384.73,-1327.04 1173.69,-2430.2 2212.28,-3282.11 1027.97,-843.2 2299.02,-1439.18 3661.01,-1760.55 1679.69,-396.34 3505.68,-376.33 5189.77,111.91 211.42,61.27 333.14,282.33 271.87,493.75 -61.27,211.42 -282.33,333.14 -493.75,271.87 -1548.47,-448.92 -3232.84,-466.04 -4786.63,-99.41 -1247.9,294.44 -2406.42,835.55 -3336.01,1598.05 -918.97,753.79 -1615.64,1725.01 -1952.92,2888.37 -279.98,965.76 -313.55,2070.81 -22.9,3302.64 987.47,4184.87 1727.94,8001.83 2329.95,11775.26 601.61,3770.92 1062.37,7483.11 1491.81,11467.34 44.13,409.46 -92.45,1289.73 -595.21,2171.49 -336.67,590.47 -838.05,1193.14 -1559.89,1673.55 -18.52,12.26 -37.7,22.75 -57.33,31.55 -9.01,6.21 -18.32,12.12 -27.98,17.67 -1928.37,1111.56 -3949.03,1833.1 -5181.7,2273.25 -275.2,98.26 -517.3,184.72 -598.99,215.24 -2626.54,981.36 -5266.42,2316.66 -7936.01,3926 -2674.5,1612.29 -5374.89,3498.06 -8118.92,5577.62 -176.04,132.89 -426.49,97.92 -559.38,-78.12 -132.89,-176.04 -97.92,-426.49 78.12,-559.38 1586.19,-1202.1 3158.31,-2340.15 4719.85,-3399.15l545.35 -15533.8c-1684.12,-741.22 -3191.57,-1834.16 -4278.17,-3154.17 -1392.82,-1692 -2099.51,-3754.7 -1622.16,-5936.03 41.23,-188.38 91.94,-379.31 152.48,-572.65 1146.93,-3662.88 5768.65,-6820.36 10147.05,-9811.6 2346.39,-1603.01 4621.61,-3157.41 6211.75,-4688.38 1321.84,-1272.66 2498.91,-2496.99 3340.4,-4049.96 839.22,-1548.79 1356.87,-3443.17 1372.66,-6072.79 0.86,-220.05 179.95,-397.74 400,-396.88 220.05,0.86 397.74,179.95 396.88,400 -16.7,2779.65 -569.73,4792.93 -1466.42,6447.79 -894.43,1650.67 -2118.59,2926.07 -3490.4,4246.84 -1639.96,1578.94 -3941.42,3151.27 -6314.87,4772.76 -4266.76,2914.97 -8770.63,5991.93 -9834.55,9389.72 -52.25,166.88 -96.74,334.94 -133.72,503.91 -420.32,1920.7 213.11,3750.52 1456.52,5261.01 1268.45,1540.92 3166.3,2751.69 5238.69,3400.6 328.11,102.73 662.29,191.61 1000.73,265.67 215.73,46.6 352.85,259.28 306.25,475.01 -46.6,215.73 -259.28,352.85 -475.01,306.25 -358.06,-78.35 -715.23,-173.52 -1069.47,-284.43 -185.36,-58.04 -369.42,-120.44 -551.97,-186.86l-515.04 14670.58c886.63,-586.69 1770.03,-1146.95 2650.85,-1677.94 2703.75,-1629.93 5387.2,-2985.97 8070.39,-3988.5 256.8,-95.95 421.21,-154.66 608.35,-221.48 1213.06,-433.14 3201.58,-1143.21 5053.58,-2210.75z"/></g><text x="0" y="60015" fill="#000000" font-size="5px" font-weight="bold" font-family="'Helvetica Neue', Helvetica, Arial-Unicode, Arial, Sans-serif">Created by Olena Panasovska</text><text x="0" y="60020" fill="#000000" font-size="5px" font-weight="bold" font-family="'Helvetica Neue', Helvetica, Arial-Unicode, Arial, Sans-serif">from the Noun Project</text></svg>