<?xml version="1.0" encoding="UTF-8"?>
<!DOCTYPE svg PUBLIC "-//W3C//DTD SVG 1.1//EN" "http://www.w3.org/Graphics/SVG/1.1/DTD/svg11.dtd">
<!-- Creator: CorelDRAW 2020 (64-Bit) -->
<svg xmlns="http://www.w3.org/2000/svg" xml:space="preserve" width="194mm" height="192.601mm" version="1.1" style="shape-rendering:geometricPrecision; text-rendering:geometricPrecision; image-rendering:optimizeQuality; fill-rule:evenodd; clip-rule:evenodd"
viewBox="0 0 19400 19260.1"
 xmlns:xlink="http://www.w3.org/1999/xlink"
 xmlns:xodm="http://www.corel.com/coreldraw/odm/2003">
 <defs>
  <style type="text/css">
   <![CDATA[
    .fil0 {fill:#1A76D1;fill-rule:nonzero}
   ]]>
  </style>
 </defs>
 <g id="Layer_x0020_1">
  <metadata id="CorelCorpID_0Corel-Layer"/>
  <g id="_2692009910784">
   <path class="fil0" d="M14355.34 8732.87l-840.71 2192.95c-138.53,364.69 -417.97,659.55 -774.41,818.21 -188.27,84.07 -393.13,126.69 -599.16,127.88 -179.98,0 -358.78,-33.15 -526.93,-99.46 -759.01,-290.11 -1137.91,-1141.47 -847.82,-1900.46l288.92 -754.28 1.19 0c-1302.52,-384.82 -2693.81,-346.94 -3972.5,108.94 279.46,-1708.65 1283.58,-4438.11 2095.86,-6599.12 349.29,-927.14 -56.85,-1969.15 -942.55,-2414.36 -884.52,-446.41 -1963.24,-153.93 -2500.81,678.5l-2597.91 4012.81c-1306.06,1944.3 -2269.91,4075.57 -3062.2,6516.06 -233.27,717.57 62.75,1501.43 712.83,1885.11 5090.45,2989.84 8772.86,5768.85 12812.05,4314.74l1.19 -0.02c515.07,-188.27 1091.75,-7.1 1407.88,441.65l843.07 1203.06 3543.87 0.02 0 -11474.04c-1734.72,-138.54 -3474.16,185.9 -5041.94,941.37l0.08 0.44zm-357.61 6864.35l-5.91 0c-455.88,-5.92 -903.47,-30.79 -1342.77,-66.31l-79.33 794.53 1.19 -1.19c-23.67,233.27 -219.05,410.9 -452.32,410.9 -15.38,0 -30.79,-1.2 -45,-3.56l0 1.19c-120.78,-11.85 -230.9,-71.04 -306.67,-164.59 -76.96,-93.54 -113.67,-213.14 -101.83,-332.75l79.33 -801.62c-521.01,-69.87 -1031.33,-162.23 -1529.86,-277.08l-228.54 877.42c-52.09,198.92 -233.26,338.65 -439.3,338.65 -39.07,0 -78.15,-5.93 -114.86,-15.39 -117.23,-29.6 -217.88,-105.38 -278.27,-209.59 -61.57,-104.21 -78.15,-229.71 -48.55,-345.75l230.9 -876.22c-500.86,-146.83 -994.63,-319.71 -1477.75,-518.63l-422.71 834.78c-76.96,153.94 -234.46,251.03 -406.13,251.03 -71.06,-1.19 -142.1,-17.77 -204.85,-50.92 -107.75,-54.46 -189.46,-149.19 -226.17,-264.05 -37.88,-113.68 -28.42,-239.19 26.06,-346.94l402.59 -796.9c-372.99,-183.53 -737.7,-380.09 -1091.75,-594.4l1.16 0.02c-103.02,-61.58 -177.62,-162.23 -207.21,-279.46 -29.6,-117.23 -10.66,-241.55 52.09,-344.57 62.75,-103.02 163.41,-177.61 280.64,-206.03 117.22,-28.43 241.55,-9.48 344.57,53.28 335.11,201.31 678.49,388.37 1032.51,558.91l374.18 -737.7c113.68,-223.78 386,-312.59 609.81,-198.92 223.78,112.48 312.59,386 200.11,609.8l-352.88 698.63c420.34,169.32 851.37,320.9 1295.39,451.15l207.21 -789.8 1.21 0c30.79,-117.23 105.38,-216.69 210.77,-278.27 104.2,-60.38 228.53,-78.15 344.57,-47.36 117.23,30.79 216.69,107.75 278.26,211.96 60.39,104.21 76.97,229.71 45,345.74l-206.03 788.63c451.14,103.01 914.12,188.26 1386.58,252.21l89.99 -910.57 0 -1.19c24.87,-249.85 247.48,-431.02 497.32,-406.13 248.66,24.86 431.02,246.28 407.34,494.95l-89.99 920.06c413.26,33.16 837.14,55.66 1265.8,61.58l0 1.19c251.04,3.56 451.15,207.21 448.79,457.05 -1.2,251.04 -204.85,452.32 -454.69,452.32l0 -0.09z"/>
   <polygon class="fil0" points="17745.54,6.08 14503.56,6.08 12884.9,4228.66 15711.33,5312.11 "/>
   <path class="fil0" d="M11965.76 10853.86c120.79,46.18 254.58,42.64 373,-9.48 117.23,-53.28 209.59,-150.38 255.76,-271.15l1010.03 -2633.43c61.58,-163.4 206.04,-280.63 378.92,-305.49 545.87,-75.79 1007.66,-442.85 1205.42,-957.95l153.94 -402.59 -2827.62 -1084.62 -153.94 402.59c-197.74,515.07 -99.46,1097.66 256.96,1519.19 111.31,133.81 140.9,318.53 78.15,480.73l-1010.02 2633.43c-46.18,120.78 -42.64,254.57 9.47,372.99 53.29,117.23 150.39,209.59 269.98,255.77l-0.05 0.01z"/>
  </g>
 </g>
</svg>
