<svg xmlns="http://www.w3.org/2000/svg" version="1.1" viewBox="-5.0 -10.0 110.0 135.0">
 <path d="m65.367 47.023-2.7734 7.2344c-0.45703 1.2031-1.3789 2.1758-2.5547 2.6992-0.62109 0.27734-1.2969 0.41797-1.9766 0.42188-0.59375 0-1.1836-0.10938-1.7383-0.32812-2.5039-0.95703-3.7539-3.7656-2.7969-6.2695l0.95312-2.4883h0.003906c-4.2969-1.2695-8.8867-1.1445-13.105 0.35938 0.92188-5.6367 4.2344-14.641 6.9141-21.77 1.1523-3.0586-0.1875-6.4961-3.1094-7.9648-2.918-1.4727-6.4766-0.50781-8.25 2.2383l-8.5703 13.238c-4.3086 6.4141-7.4883 13.445-10.102 21.496-0.76953 2.3672 0.20703 4.9531 2.3516 6.2188 16.793 9.8633 28.941 19.031 42.266 14.234h0.003906c1.6992-0.62109 3.6016-0.023438 4.6445 1.457l2.7812 3.9688h11.691v-37.852c-5.7227-0.45703-11.461 0.61328-16.633 3.1055zm-1.1797 22.645h-0.019531c-1.5039-0.019531-2.9805-0.10156-4.4297-0.21875l-0.26172 2.6211 0.003907-0.003906c-0.078125 0.76953-0.72266 1.3555-1.4922 1.3555-0.050781 0-0.10156-0.003906-0.14844-0.011719v0.003906c-0.39844-0.039062-0.76172-0.23437-1.0117-0.54297-0.25391-0.30859-0.375-0.70312-0.33594-1.0977l0.26172-2.6445c-1.7188-0.23047-3.4023-0.53516-5.0469-0.91406l-0.75391 2.8945c-0.17188 0.65625-0.76953 1.1172-1.4492 1.1172-0.12891 0-0.25781-0.019531-0.37891-0.050781-0.38672-0.097656-0.71875-0.34766-0.91797-0.69141-0.20312-0.34375-0.25781-0.75781-0.16016-1.1406l0.76172-2.8906c-1.6523-0.48438-3.2812-1.0547-4.875-1.7109l-1.3945 2.7539c-0.25391 0.50781-0.77344 0.82812-1.3398 0.82812-0.23438-0.003907-0.46875-0.058594-0.67578-0.16797-0.35547-0.17969-0.625-0.49219-0.74609-0.87109-0.125-0.375-0.09375-0.78906 0.085937-1.1445l1.3281-2.6289c-1.2305-0.60547-2.4336-1.2539-3.6016-1.9609h0.003906c-0.33984-0.20312-0.58594-0.53516-0.68359-0.92188-0.097656-0.38672-0.035156-0.79688 0.17188-1.1367 0.20703-0.33984 0.53906-0.58594 0.92578-0.67969 0.38672-0.09375 0.79688-0.03125 1.1367 0.17578 1.1055 0.66406 2.2383 1.2812 3.4062 1.8438l1.2344-2.4336c0.375-0.73828 1.2734-1.0312 2.0117-0.65625 0.73828 0.37109 1.0312 1.2734 0.66016 2.0117l-1.1641 2.3047c1.3867 0.55859 2.8086 1.0586 4.2734 1.4883l0.68359-2.6055h0.003906c0.10156-0.38672 0.34766-0.71484 0.69531-0.91797 0.34375-0.19922 0.75391-0.25781 1.1367-0.15625 0.38672 0.10156 0.71484 0.35547 0.91797 0.69922 0.19922 0.34375 0.25391 0.75781 0.14844 1.1406l-0.67969 2.6016c1.4883 0.33984 3.0156 0.62109 4.5742 0.83203l0.29688-3.0039v-0.003907c0.082031-0.82422 0.81641-1.4219 1.6406-1.3398 0.82031 0.082031 1.4219 0.8125 1.3438 1.6328l-0.29688 3.0352c1.3633 0.10937 2.7617 0.18359 4.1758 0.20312v0.003907c0.82812 0.011719 1.4883 0.68359 1.4805 1.5078-0.003906 0.82812-0.67578 1.4922-1.5 1.4922z"/>
 <path d="m76.551 18.234h-10.695l-5.3398 13.93 9.3242 3.5742z"/>
 <path d="m57.484 54.02c0.39844 0.15234 0.83984 0.14062 1.2305-0.03125 0.38672-0.17578 0.69141-0.49609 0.84375-0.89453l3.332-8.6875c0.20312-0.53906 0.67969-0.92578 1.25-1.0078 1.8008-0.25 3.3242-1.4609 3.9766-3.1602l0.50781-1.3281-9.3281-3.5781-0.50781 1.3281c-0.65234 1.6992-0.32812 3.6211 0.84766 5.0117 0.36719 0.44141 0.46484 1.0508 0.25781 1.5859l-3.332 8.6875c-0.15234 0.39844-0.14062 0.83984 0.03125 1.2305 0.17578 0.38672 0.49609 0.69141 0.89062 0.84375z"/>
<text x="0.0" y="117.5" font-size="5.0" font-weight="bold" font-family="Arbeit Regular, Helvetica, Arial-Unicode, Arial, Sans-serif" fill="#000000">Created by Md Moniruzzaman</text><text x="0.0" y="122.5" font-size="5.0" font-weight="bold" font-family="Arbeit Regular, Helvetica, Arial-Unicode, Arial, Sans-serif" fill="#000000">from Noun Project</text></svg>