<?xml version="1.0" encoding="UTF-8"?>
<!DOCTYPE svg PUBLIC "-//W3C//DTD SVG 1.1//EN" "http://www.w3.org/Graphics/SVG/1.1/DTD/svg11.dtd">
<!-- Creator: CorelDRAW 2020 (64-Bit) -->
<svg xmlns="http://www.w3.org/2000/svg" xml:space="preserve" width="200mm" height="200mm" version="1.1" style="shape-rendering:geometricPrecision; text-rendering:geometricPrecision; image-rendering:optimizeQuality; fill-rule:evenodd; clip-rule:evenodd"
viewBox="0 0 20000 20000"
 xmlns:xlink="http://www.w3.org/1999/xlink"
 xmlns:xodm="http://www.corel.com/coreldraw/odm/2003">
 <defs>
  <style type="text/css">
   <![CDATA[
    .fil0 {fill:#1A76D1}
   ]]>
  </style>
 </defs>
 <g id="Layer_x0020_1">
  <metadata id="CorelCorpID_0Corel-Layer"/>
  <g id="_2692205034496">
   <path class="fil0" d="M11628.04 12781.04c0,814.77 369.66,1470.83 742.59,2030.86 313.46,470.75 795.55,1163.72 1028.29,1627.95 584.53,1165.87 25.52,1932.5 -1111.61,2312.96 -194.31,65.01 -294.49,95.71 -529.99,134.08 -1207.58,196.73 -2342.86,-66.18 -2929.17,-1157.51 -378.65,-704.82 -604.79,-1849.44 -771.28,-2783.42 -246.87,-1384.89 -594.9,-2950.46 -1194.88,-4156.68 -697.12,-1401.54 -490.9,-2915.37 634.86,-4053.5 692.62,-700.25 2406.87,-1293.45 3507.57,-1339.3 1287.82,-53.65 3403.8,1261.03 2212.4,3817.07 -368.63,790.85 -782.49,1490.33 -1172.15,2265.37 -159.14,316.56 -416.63,861.73 -416.63,1302.12zm-5664.06 -3789.06c0,1517.74 465.37,1795.78 903.68,3119.74 393.5,1188.62 480.73,1835.37 727.16,3061.91 394.82,1965 792.47,4248.03 3330.1,4248.03 908.43,0 1520.93,-95.43 2263.98,-548.51 613.32,-373.99 939.14,-910.86 939.14,-1717.12 0,-719.47 -774.62,-1747.91 -1093.74,-2226.56 -1132.9,-1699.18 -1163.64,-1996.74 -416.75,-3502.68l869.08 -1630.92c192.8,-471.27 321.39,-624.54 477.84,-1201.84 195.09,-719.94 142.11,-1253.6 -136.83,-1918.83 -269.19,-642.01 -828.46,-1136.23 -1444.07,-1446.56 -1688.93,-851.39 -4570.33,327.97 -5431.55,1352.94 -183.57,218.49 -322.81,411.72 -473.16,659.64 -236.24,389.53 -514.88,1138.44 -514.88,1750.76z"/>
   <path class="fil0" d="M5573.35 5906.04c0,-660.21 742.19,-1138.31 742.19,0 0,712.55 -742.19,842.05 -742.19,0zm1093.76 -1171.88c0,-1160.77 898.44,-1076.44 898.44,-312.49 0,335.45 -41.64,887.3 -445.63,961 -289.08,52.75 -452.81,-344.48 -452.81,-648.51zm1992.18 -156.25c-868.95,0 -703.68,-1992.19 78.14,-1992.19 473.57,0 759.21,968.99 365.29,1654.37 -71.23,123.91 -279.96,337.82 -443.43,337.82zm1875.01 -429.69c-899.41,0 -889.19,-2304.69 156.25,-2304.69 886.12,0 825.94,2304.69 -156.25,2304.69zm2617.18 429.69c-386.79,0 -669.9,-179.84 -858.31,-508.87 -425.86,-743.68 -364.98,-1820.39 148.14,-2505.98 513.03,-685.51 1317.07,-633.1 1687.88,84.02 337.81,653.28 347.85,1596.5 -16.94,2211.92 -192.89,325.39 -519.53,718.91 -960.77,718.91zm-1484.37 -2539.06c-101.34,-74.24 -87.16,-109.21 -166.82,-223.81 -439.53,-632.35 -1199.49,-578.54 -1619.24,-116.94 -138.96,152.81 -380.91,523.72 -401.45,770.44 -334.79,-224.2 -239.91,-351.56 -820.31,-351.56 -572.18,0 -1054.68,760.46 -1054.68,1367.19 -810.67,-428.96 -1445.32,330.76 -1445.32,1249.99l-195.31 0c-752.53,0 -1126.59,1227.66 -648.58,1937.66 449.71,667.95 1507.96,253.04 1507.96,-843.9 325.86,156.35 679.97,-53.19 848.73,-205.97 135.52,-122.7 356.76,-526.02 362.2,-770.6 171.23,90.6 247.54,171.12 496.22,207.54 500.63,73.29 1027.73,-409.82 1144.4,-910.67 936.67,1077.61 1818.61,97.25 1914.07,-312.49l78.13 0c109.54,470.16 468.97,907.88 884.48,1107.69 734.24,353.09 1383.89,-13.05 1800.26,-571.39 146.02,-195.79 249.22,-383.9 346.59,-629.98 560.19,-1415.96 -256.68,-3148.51 -1273.51,-3148.51 -512.28,0 -819.99,75.9 -1221.68,497.07 -203.54,213.37 -460.64,624.21 -536.14,948.24z"/>
   <path class="fil0" d="M15534.29 11570.1c0,364.51 144.46,312.86 703.13,312.51l898.43 39.06c0,1288.93 11.1,877.95 1725.12,1088.69 626.53,77.03 657.62,-485.65 111.74,-503.67 -468.31,-15.47 -848.68,-77.22 -1329.04,-77.22 0,-1283.61 -62.89,-984.64 -1055.97,-1014.34 -203.96,-6.11 -1053.41,-181.66 -1053.41,154.97z"/>
   <path class="fil0" d="M2331.17 12312.29l0 117.18c-455.86,0 -869.27,51.15 -1327.05,79.2 -566.84,34.75 -501.15,576.8 109.75,501.69 361.75,-44.48 921.74,-99.11 1296.79,-110.77 409.43,-12.73 428.33,-144.9 428.33,-977.92l859.37 -39.06c573.65,0.2 742.19,62.42 742.19,-312.51 0,-325.32 -760.5,-165.61 -937.31,-156.06 -409.83,22.13 -1013.62,-98.05 -1109.15,140.86 -37.04,92.63 -62.92,610.17 -62.92,757.39z"/>
   <path class="fil0" d="M612.42 7273.22c-99.79,428.33 -15.78,310.84 731.19,870.37 146.16,109.47 266.69,180.89 412.61,290.53 107.11,80.48 306.46,245.35 457.76,245.35 120.9,0 593.24,-519.23 664.07,-625 81.68,54.7 194.46,153.42 282.42,225.39 100.99,82.62 175.72,143.54 281.33,226.49 166.53,130.79 498.71,446.57 647.18,446.57 273.01,0 324.54,-285.39 164.39,-436.7l-918.84 -722.91c-141.8,-114.82 -314.52,-282.6 -495.54,-324.77 -294.05,155.59 -446.59,453.21 -703.13,624.99l-647.51 -446.23c-384,-277.74 -557.48,-497.69 -875.93,-374.08z"/>
   <path class="fil0" d="M3385.85 14968.53c0,396.61 227.02,567.8 234.39,898.45 -159.06,37.05 -228.14,108.92 -364.41,182.47l-768.69 403.18c-553.02,263.38 -148.51,564.23 22.18,531.49l1084.36 -557.76c138.06,-77.27 200.19,-119.72 353.15,-193.72 552.97,-267.51 30.73,-569.2 -14.1,-1107.85 154.6,-12.86 236.75,-79.2 364.17,-143.65 136.81,-69.2 252.52,-106 378.58,-168.28 325.4,-160.77 624.44,-217.65 624.44,-430.26 0,-467.27 -473.79,-194.82 -677.3,-91.37l-851.62 398.38c-126.6,51 -385.15,129.61 -385.15,278.92z"/>
   <path class="fil0" d="M17838.98 8093.53c-256.54,-171.78 -409.08,-469.4 -703.13,-624.99 -109.46,-14.19 -1262.14,920.98 -1408.56,1053.5 -174.86,158.24 -136.8,430.88 197.63,430.88 111.54,0 975.91,-767.21 1171.87,-898.45 70.83,105.77 543.17,625 664.07,625 199.39,0 1246.17,-797.49 1486.26,-974.67 333.05,-245.78 124.43,-715.53 -442.62,-286.36l-637.32 456.41c-123.81,85.59 -202.87,152.37 -328.2,218.68z"/>
   <path class="fil0" d="M14674.92 14343.54c0,273.38 223.77,267.63 598.52,456.16l768.67 325.09c-16.48,197.98 -273.45,725.61 -273.45,820.31 0,213.41 369.33,340.48 690.62,520.32 101.41,56.76 191.65,96.57 286.24,143.45 183.98,91.17 334.87,184.01 533.27,287.6 371.49,193.97 482.07,-25.99 482.07,-131.06 0,-198.54 -103.02,-232.41 -246.5,-300.38 -159.93,-75.75 -239.65,-135.92 -377.99,-207.95l-781.77 -390.1c13.45,-603.12 620.36,-846.21 -117.65,-1171.41l-1327.66 -586.41c-126.33,0 -234.37,108.04 -234.37,234.38z"/>
  </g>
 </g>
</svg>
