<?xml version="1.0" encoding="UTF-8"?>
<!DOCTYPE svg PUBLIC "-//W3C//DTD SVG 1.1//EN" "http://www.w3.org/Graphics/SVG/1.1/DTD/svg11.dtd">
<!-- Creator: CorelDRAW 2020 (64-Bit) -->
<svg xmlns="http://www.w3.org/2000/svg" xml:space="preserve" width="200mm" height="200mm" version="1.1" style="shape-rendering:geometricPrecision; text-rendering:geometricPrecision; image-rendering:optimizeQuality; fill-rule:evenodd; clip-rule:evenodd"
viewBox="0 0 20000 20000"
 xmlns:xlink="http://www.w3.org/1999/xlink"
 xmlns:xodm="http://www.corel.com/coreldraw/odm/2003">
 <defs>
  <style type="text/css">
   <![CDATA[
    .fil0 {fill:#1A76D1}
   ]]>
  </style>
 </defs>
 <g id="Layer_x0020_1">
  <metadata id="CorelCorpID_0Corel-Layer"/>
  <path class="fil0" d="M2689.89 11301.27c0,-992.04 1008.11,-1438.97 1804.47,-635.15 218.63,220.69 1441.96,1484.4 1607.98,1577.44 561.77,314.79 1221.36,71.68 1467.36,-457.54 173.86,-374.05 120.07,-949.51 120.07,-1492.79 0,-860.72 -54.28,-7581.54 37.91,-7905.42 266.76,-937.14 1458.19,-911.75 1805.28,-227.94 167.17,329.38 132.55,685.14 132.55,1157.74l-2.88 7099.47c-0.18,192.89 44.01,400.34 285.14,400.34 405.34,0 282.25,-727.62 282.25,-1129.01l0 -7177.24c0,-652.51 -102,-1382.73 459.26,-1718.1 580.76,-347.01 1180.3,-105.71 1407.78,375.25 161.82,342.17 108.72,858.54 108.72,1342.85l0 7136.92c0,406.38 -128.07,1169.33 282.24,1169.33 374.12,0 322.67,-507.67 322.58,-887.07l0 -6169.21c0,-414.92 -54.35,-829.39 111.16,-1098.49 380.31,-618.34 1243.9,-637.78 1653.88,-61.73 190.61,267.83 170.44,556.62 170.4,998.93l0 4596.67c0,699.81 -53.27,1627.87 -0.88,2299.2 29.03,371.88 469.13,421.12 581.1,95.5 71.54,-208.09 24.76,-5136.47 24.59,-5741.4 -0.12,-502.87 -38.15,-618.42 183.49,-945.52 471.06,-695.18 1751.96,-419.42 1751.96,582.64l0 10685.22c0,628.74 -162.03,895.16 -282.25,1411.24l-1370.94 -120.96c101.27,-211.07 348.21,-854.37 -33.63,-978.23 -189.64,-61.52 -327.28,71 -379.87,282.48 -45.85,184.35 -105.12,377.86 -151,574.78l-660.79 -185.94c-165.27,-54.97 -534.95,-206.05 -669.81,-217.28 25.93,-311.74 352,-590.86 235.38,-836.42 -96.39,-202.99 -375.13,-306.7 -572.62,95.99 -84.05,171.36 -141.51,263.16 -186.95,458.19 -226.54,-18.85 -1281.71,-644.34 -1370.94,-766.11 73.2,-109.3 403.22,-519.68 403.22,-645.15 0,-299.08 -294.86,-404.6 -496.03,-214.89l-391.04 537.47c-239.84,-160.6 -882.19,-699.16 -1008.04,-887.08 117.3,-175.17 284.42,-296.66 435.49,-452.12 79.8,-82.11 144.98,-143.88 109.51,-290 -58.27,-240.03 -215.52,-225.6 -343.39,-225.6 -130.09,0 -507.57,472.38 -645.15,564.5 -153.21,-228.81 -435.45,-598.59 -698.47,-335.57 -272.49,272.49 146.11,567.2 295.26,738.79 -209.37,312.64 -524.19,352.15 -524.19,725.79 0,113.93 168.16,241.93 282.25,241.93 193.38,0 484.73,-416.76 645.15,-524.19l806.18 685.72c73.41,57.02 232.9,173.98 282.5,241.68 -77.19,145.89 -403.21,565.44 -403.21,685.47 0,225.53 190.68,282.26 362.89,282.26 188.34,0 364.38,-470.81 564.51,-604.83 330.09,174.65 1032.02,677.75 1411.25,766.1 -42.17,181.04 -605.13,1008.04 0,1008.04 303.5,0 328.3,-355.6 524.17,-725.78l1451.58 443.53c-21.9,263.23 -161.28,461.81 -161.28,725.8 0,245.61 338.31,382.37 515.26,152.91 66.19,-85.85 207.08,-603.27 210.52,-757.73 256.68,5.71 678.73,120.95 1209.65,120.95 -90.98,340.76 -766.11,754.49 -766.11,1491.91l0 766.1 -6814.34 0c0,-477.93 44.12,-992.17 -142.82,-1429.73 -110.82,-259.39 -196.35,-318.75 -340.36,-506.39 -100,-130.29 -84,-97.26 -208.11,-195.1l-1959.05 -1952.16c-99.42,-95.7 -145.35,-109.74 -243.24,-200.28 -565.48,-523.04 -1309.56,-1335.6 -1934.11,-1936.75l-444.36 -402.41c-440.04,-440.36 -1139.08,-982.91 -1139.08,-1481.82zm6975.62 -9878.77c-698.46,-467.72 -1440.36,-516.48 -2088,89.35 -104.25,97.52 -271.16,343.58 -332.16,474.27 -91.24,195.47 -122.5,389.23 -120.64,685.8l0.55 7943.89c0.06,673.38 31.89,1169.33 -524.18,1169.33 -426.84,0 -1513.75,-1535.11 -2185.17,-1927.63 -510.57,-298.47 -1111.72,-236.51 -1589.04,48.54 -221.05,132.01 -369.93,301.36 -501.1,506.93 -453.57,710.9 -197.48,1639.94 380.79,2081.28 276.57,211.1 1597.55,1568.4 1948.97,1921.9 177.56,178.6 326.53,285.02 504.09,463.62l1431.38 1431.46c405.02,405.01 1735.13,1534.8 1867.43,2003.45 148.91,527.61 -160.26,1655.72 279.7,1655.72l7459.49 0c312.87,0 284.64,-251.72 282.53,-564.21 -9.69,-1440.26 63.5,-880.47 668.47,-1871.8 450.72,-738.53 742.5,-1514.44 742.5,-2684.82l0 -10241.69c0,-1010.66 -760.72,-1693.5 -1572.55,-1693.5 -402.28,0 -702.77,182.38 -967.72,322.58 0,-895.72 -688.72,-1653.2 -1572.53,-1653.2 -492.85,0 -655.32,157.27 -967.72,322.58 0,-522.95 -112.91,-1005.71 -371.79,-1281.4 -1132.96,-1206.52 -2679.51,-329.51 -2773.3,797.55z"/>
 </g>
</svg>
