<svg xmlns="http://www.w3.org/2000/svg" xmlns:xlink="http://www.w3.org/1999/xlink" version="1.1" x="0px" y="0px" viewBox="0 0 74 92.5" style="enable-background:new 0 0 74 74;" xml:space="preserve"><g><path d="M62.47,10.18c-0.1,0.14-0.66-1.19-0.77-1.17c-0.31,0.07-5.7,1.39-7.53,8.86c-0.05,0.01-0.11,0.01-0.17,0.03   c-0.06,0.02-6.14,2.39-10.89,5.13c-0.97,0.56-2.03,0.96-3.15,1.19c-4.79,0.98-8.71,3.01-10.43,4c-1.44-8.4,1.31-22.41,1.34-22.56   c0.08-0.4-4.54,15.35-2.61,23.89c0.01,0.01,0.01,0.02,0.01,0.03c1.81,7.92-6.2,16.44-6.07,16.33c0.39-0.31,9.18-7.53,7.63-16.13   c0.71-0.42,2.28-1.31,4.4-2.2l0.6,3.64l-0.66-0.47c-0.33-0.24-0.8-0.17-1.04,0.17c-0.25,0.34-0.17,0.81,0.17,1.05l2.13,1.52   c0.14,0.1,0.29,0.14,0.44,0.14c0.23,0,0.46-0.1,0.61-0.31l1.54-2.14c0.25-0.33,0.17-0.8-0.17-1.04c-0.33-0.24-0.8-0.17-1.04,0.17   l-0.49,0.68l-0.66-3.97c1.39-0.51,2.94-0.99,4.6-1.33c0.38-0.07,0.75-0.17,1.11-0.29v4.88l-0.59-0.59c-0.3-0.29-0.77-0.29-1.06,0   c-0.3,0.3-0.29,0.77,0,1.07l1.88,1.85c0.14,0.15,0.33,0.22,0.52,0.22c0.19,0,0.39-0.07,0.53-0.22l1.86-1.86   c0.29-0.29,0.29-0.76,0-1.06c-0.29-0.29-0.77-0.29-1.06,0l-0.58,0.58v-5.43c0.34-0.16,0.67-0.32,0.99-0.51   c1.29-0.74,2.68-1.46,4.02-2.11l-0.75,4.66l-0.48-0.67c-0.24-0.33-0.71-0.41-1.05-0.17c-0.33,0.25-0.41,0.72-0.17,1.05l1.55,2.14   c0.15,0.2,0.37,0.31,0.61,0.31c0.15,0,0.3-0.04,0.43-0.14l2.14-1.53c0.33-0.24,0.41-0.71,0.17-1.04c-0.24-0.34-0.71-0.42-1.04-0.18   l-0.68,0.49l0.92-5.69c1.84-0.85,3.43-1.51,4.3-1.87c-0.37,2.47-0.38,5.5,0.19,9.23c1.64,10.69,1.62,15.74,1.22,19.71   c-0.24,0.86-0.88,1.71-1.89,2.49c-1.01,0.8-2.39,1.53-4.08,2.17c-1.44,0.55-3.07,1-4.8,1.39l-2.05-3.71l0.81,0.23   c0.39,0.11,0.81-0.12,0.92-0.52c0.12-0.4-0.12-0.81-0.51-0.93l-2.54-0.72c-0.4-0.11-0.81,0.12-0.93,0.52l-0.73,2.52   c-0.11,0.4,0.12,0.81,0.52,0.93c0.07,0.02,0.14,0.03,0.21,0.03c0.32,0,0.62-0.22,0.72-0.55l0.22-0.78l1.82,3.3   c-2.29,0.42-4.74,0.7-7.25,0.83v-5.31l0.59,0.6c0.15,0.14,0.34,0.21,0.53,0.21s0.39-0.07,0.53-0.22c0.29-0.29,0.29-0.77,0-1.06   l-1.88-1.86c-0.29-0.29-0.76-0.29-1.05,0.01l-1.86,1.85c-0.29,0.3-0.29,0.77,0,1.06c0.29,0.3,0.77,0.3,1.06,0l0.58-0.57v5.34   c-2.55,0.07-5.12-0.02-7.63-0.27l1.77-3.21l0.23,0.79c0.09,0.32,0.39,0.54,0.72,0.54c0.06,0,0.14-0.01,0.2-0.03   c0.4-0.12,0.63-0.53,0.52-0.93l-0.73-2.52c-0.12-0.4-0.53-0.63-0.93-0.52l-2.53,0.72c-0.4,0.12-0.63,0.53-0.52,0.93   c0.11,0.4,0.53,0.63,0.92,0.52l0.81-0.23l-2.08,3.77c-4.96-0.66-9.51-1.99-12.74-4.11c-3-1.96-4.78-5.52-4.67-9.28   C8,26.17,15.25,4.84,15.09,5.23c-0.08,0.2-8.58,20.62-9.07,36.67c-0.13,4.28,1.92,8.33,5.34,10.58c5.05,3.31,13.17,4.8,21.16,4.8   c6.39,0,12.7-0.96,17.28-2.7c2.18-0.82,3.87-1.81,5.05-2.9c-0.14,1.06-0.29,2.13-0.41,3.32c-0.33,3.41,0.24,9.07,1.99,13.3   c0.12,0.29,0.4,0.47,0.7,0.47c0.09,0,0.19-0.02,0.28-0.06c0.2-0.08,0.35-0.24,0.42-0.43C75.84,49.66,64.91,16.76,62.47,10.18z"/><path d="M50.31,32c0.16,0,0.33-0.05,0.47-0.16c0.41-0.33,0.8-0.66,1.18-1.01c0.3-0.28,0.32-0.76,0.04-1.06   c-0.28-0.3-0.76-0.32-1.06-0.04c-0.35,0.32-0.71,0.64-1.09,0.94c-0.32,0.26-0.38,0.73-0.12,1.05C49.87,31.91,50.09,32,50.31,32z"/><path d="M46.86,32.62c-0.89,0.48-1.84,0.89-2.81,1.23c-0.39,0.14-0.6,0.57-0.46,0.96c0.11,0.31,0.4,0.5,0.71,0.5   c0.08,0,0.17-0.01,0.25-0.04c1.04-0.37,2.05-0.81,3.01-1.32c0.37-0.19,0.5-0.65,0.31-1.01C47.68,32.56,47.23,32.42,46.86,32.62z"/><path d="M37.58,36.56c1.09-0.03,2.19-0.14,3.27-0.33c0.41-0.07,0.68-0.46,0.61-0.87c-0.07-0.41-0.45-0.68-0.87-0.61   c-1.01,0.17-2.04,0.28-3.05,0.31c-0.41,0.01-0.74,0.36-0.73,0.77c0.01,0.41,0.34,0.73,0.75,0.73   C37.57,36.56,37.57,36.56,37.58,36.56z"/><path d="M33.74,36.34c0.04,0.01,0.07,0.01,0.11,0.01c0.37,0,0.69-0.27,0.74-0.64c0.06-0.41-0.22-0.79-0.63-0.85   c-0.48-0.07-0.95-0.16-1.42-0.26c-0.41-0.09-0.8,0.17-0.89,0.57c-0.09,0.4,0.17,0.8,0.57,0.89C32.71,36.17,33.22,36.26,33.74,36.34   z"/><path d="M20.1,52.34c0.19,0,0.37-0.07,0.52-0.21c0.35-0.33,0.71-0.65,1.08-0.95c0.32-0.26,0.37-0.73,0.11-1.05   c-0.26-0.32-0.74-0.37-1.05-0.11c-0.41,0.33-0.79,0.67-1.17,1.03c-0.3,0.28-0.31,0.76-0.03,1.06C19.7,52.26,19.9,52.34,20.1,52.34z   "/><path d="M29.12,46.54c0.08,0.34,0.39,0.57,0.73,0.57c0.06,0,0.12-0.01,0.18-0.02c0.9-0.22,1.82-0.39,2.8-0.52   c0.4-0.07,0.66-0.44,0.61-0.85c-0.06-0.4-0.44-0.68-0.85-0.63c-0.98,0.12-1.96,0.31-2.92,0.54C29.26,45.73,29.02,46.14,29.12,46.54   z"/><path d="M24.39,49.34c0.8-0.46,1.65-0.88,2.52-1.23c0.38-0.16,0.57-0.6,0.41-0.98c-0.16-0.38-0.59-0.56-0.98-0.41   c-0.93,0.38-1.83,0.82-2.7,1.32c-0.36,0.21-0.48,0.66-0.28,1.02c0.14,0.24,0.39,0.38,0.65,0.38   C24.15,49.44,24.28,49.41,24.39,49.34z"/><path d="M41.56,46.4c-0.12,0.4,0.1,0.82,0.5,0.94c0.9,0.27,1.78,0.61,2.61,1c0.1,0.05,0.21,0.07,0.32,0.07   c0.28,0,0.55-0.16,0.68-0.43c0.17-0.38,0.01-0.82-0.36-1c-0.9-0.42-1.84-0.78-2.81-1.07C42.1,45.77,41.68,46,41.56,46.4z"/><path d="M36.08,44.9c-0.41,0-0.74,0.33-0.75,0.74c-0.01,0.41,0.32,0.76,0.74,0.76c0.94,0.02,1.88,0.09,2.8,0.22   c0.04,0.01,0.07,0.01,0.11,0.01c0.37,0,0.69-0.27,0.74-0.64c0.06-0.41-0.23-0.79-0.64-0.85C38.1,45,37.1,44.92,36.09,44.9   C36.09,44.9,36.08,44.9,36.08,44.9z"/><path d="M47.32,48.91c-0.24,0.34-0.16,0.81,0.18,1.04c0.39,0.28,0.77,0.57,1.14,0.87c0.14,0.12,0.31,0.17,0.48,0.17   c0.21,0,0.43-0.09,0.58-0.27c0.27-0.32,0.22-0.79-0.09-1.06c-0.4-0.33-0.81-0.65-1.24-0.95C48.03,48.49,47.56,48.57,47.32,48.91z"/></g><text x="0" y="89" fill="#000000" font-size="5px" font-weight="bold" font-family="'Helvetica Neue', Helvetica, Arial-Unicode, Arial, Sans-serif">Created by Azam Ishaq</text><text x="0" y="94" fill="#000000" font-size="5px" font-weight="bold" font-family="'Helvetica Neue', Helvetica, Arial-Unicode, Arial, Sans-serif">from the Noun Project</text></svg>