<?xml version="1.0" encoding="UTF-8"?>
<!DOCTYPE svg PUBLIC "-//W3C//DTD SVG 1.1//EN" "http://www.w3.org/Graphics/SVG/1.1/DTD/svg11.dtd">
<!-- Creator: CorelDRAW 2020 (64-Bit) -->
<svg xmlns="http://www.w3.org/2000/svg" xml:space="preserve" width="196mm" height="200.976mm" version="1.1" style="shape-rendering:geometricPrecision; text-rendering:geometricPrecision; image-rendering:optimizeQuality; fill-rule:evenodd; clip-rule:evenodd"
viewBox="0 0 19600 20097.6"
 xmlns:xlink="http://www.w3.org/1999/xlink"
 xmlns:xodm="http://www.corel.com/coreldraw/odm/2003">
 <defs>
  <style type="text/css">
   <![CDATA[
    .fil0 {fill:#1A76D1;fill-rule:nonzero}
   ]]>
  </style>
 </defs>
 <g id="Layer_x0020_1">
  <metadata id="CorelCorpID_0Corel-Layer"/>
  <g id="_2692010114352">
   <path class="fil0" d="M17851.05 1568.34c-31.63,44.28 -208.75,-376.36 -243.53,-370.05 -98.04,22.14 -1802.76,439.62 -2381.53,2802.18 -15.82,3.16 -34.8,3.16 -53.77,9.48 -18.97,6.33 -1941.91,755.89 -3444.21,1622.48 -306.79,177.12 -642.04,303.62 -996.26,376.36 -1514.95,309.95 -2754.74,951.99 -3298.72,1265.1 -455.44,-2656.69 414.32,-7087.67 423.8,-7135.11 25.3,-126.51 -1435.88,4854.78 -825.48,7555.75 3.17,3.17 3.17,6.33 3.17,9.48 572.45,2504.89 -1960.89,5199.54 -1919.78,5164.74 123.35,-98.04 2903.39,-2381.53 2413.16,-5101.48 224.56,-132.83 721.11,-414.32 1391.6,-695.79l189.77 1151.23 -208.75 -148.65c-104.37,-75.91 -253.02,-53.77 -328.92,53.76 -79.08,107.54 -53.77,256.18 53.76,332.08l673.66 480.74c44.28,31.63 91.72,44.28 139.15,44.28 72.75,0 145.49,-31.63 192.93,-98.05l487.07 -676.82c79.07,-104.37 53.76,-253.02 -53.77,-328.93 -104.37,-75.91 -253.02,-53.77 -328.93,53.76l-154.96 215.06 -208.75 -1255.6c439.62,-161.3 929.84,-313.11 1454.86,-420.64 120.19,-22.13 237.21,-53.76 351.07,-91.72l0 1543.41 -186.6 -186.6c-94.89,-91.73 -243.53,-91.73 -335.25,0 -94.89,94.88 -91.72,243.52 0,338.41l594.59 585.11c44.28,47.44 104.37,69.57 164.46,69.57 60.1,0 123.35,-22.13 167.63,-69.57l588.27 -588.27c91.72,-91.73 91.72,-240.38 0,-335.25 -91.72,-91.73 -243.52,-91.73 -335.25,0l-183.43 183.43 0 -1717.37c107.54,-50.61 211.91,-101.2 313.12,-161.3 407.99,-234.04 847.61,-461.75 1271.41,-667.33l-237.21 1473.83 -151.81 -211.91c-75.91,-104.37 -224.56,-129.67 -332.08,-53.76 -104.38,79.07 -129.67,227.71 -53.77,332.08l490.22 676.83c47.44,63.26 117.02,98.04 192.93,98.04 47.44,0 94.89,-12.65 136,-44.28l676.83 -483.89c104.37,-75.91 129.67,-224.56 53.76,-328.93 -75.91,-107.54 -224.56,-132.84 -328.93,-56.93l-215.06 154.97 290.97 -1799.6c581.94,-268.83 1084.82,-477.56 1359.97,-591.43 -117.02,781.2 -120.18,1739.5 60.09,2919.19 518.7,3380.96 512.37,4978.14 385.86,6233.74 -75.91,271.99 -278.32,540.83 -597.75,787.52 -319.44,253.02 -755.89,483.9 -1290.4,686.31 -455.43,173.95 -970.96,316.27 -1518.11,439.62l-648.36 -1173.37 256.18 72.74c123.35,34.79 256.17,-37.95 290.97,-164.46 37.95,-126.51 -37.95,-256.18 -161.3,-294.14l-803.33 -227.71c-126.51,-34.8 -256.18,37.95 -294.14,164.46l-230.88 797.02c-34.79,126.5 37.95,256.17 164.47,294.13 22.13,6.33 44.28,9.49 66.41,9.49 101.21,0 196.09,-69.58 227.71,-173.95l69.58 -246.69 575.62 1043.7c-724.26,132.84 -1499.14,221.39 -2292.98,262.51l0 -1679.41 186.6 189.76c47.45,44.28 107.54,66.41 167.63,66.41 60.09,0 123.35,-22.13 167.63,-69.57 91.72,-91.72 91.72,-243.53 0,-335.25l-594.59 -588.27c-91.72,-91.72 -240.37,-91.72 -332.08,3.16l-588.27 585.11c-91.72,94.89 -91.72,243.53 0,335.25 91.72,94.88 243.53,94.88 335.25,0l183.43 -180.28 0 1688.9c-806.5,22.13 -1619.31,-6.33 -2413.16,-85.39l559.8 -1015.24 72.75 249.85c28.46,101.21 123.35,170.79 227.71,170.79 18.98,0 44.28,-3.17 63.26,-9.49 126.5,-37.94 199.24,-167.63 164.46,-294.13l-230.88 -797.01c-37.94,-126.51 -167.62,-199.25 -294.13,-164.47l-800.17 227.71c-126.5,37.95 -199.25,167.63 -164.46,294.14 34.79,126.5 167.63,199.25 290.97,164.46l256.17 -72.74 -657.84 1192.34c-1568.72,-208.74 -3007.75,-629.38 -4029.33,-1299.88 -948.81,-619.9 -1511.78,-1745.83 -1476.99,-2935 151.8,-4987.56 2444.78,-11733.66 2394.18,-11610.31 -25.3,63.25 -2713.61,6521.54 -2868.59,11597.72 -41.12,1353.65 607.23,2634.56 1688.9,3346.17 1597.18,1046.86 4165.31,1518.1 6692.33,1518.1 2020.98,0 4016.66,-303.61 5465.19,-853.94 689.48,-259.34 1223.97,-572.45 1597.18,-917.18 -44.28,335.24 -91.72,673.66 -129.67,1050.02 -104.37,1078.49 75.91,2868.6 629.38,4206.42 37.95,91.73 126.51,148.65 221.4,148.65 28.46,0 60.09,-6.33 88.55,-18.98 63.26,-25.29 110.69,-75.9 132.84,-136 5696.07,-5888.98 2239.21,-16294.35 1467.5,-18375.43z"/>
   <g>
    <path class="fil0" d="M14005.17 8469.41c50.61,0 104.37,-15.81 148.65,-50.61 129.67,-104.37 253.02,-208.74 373.2,-319.43 94.88,-88.56 101.2,-240.37 12.65,-335.25 -88.56,-94.89 -240.38,-101.21 -335.25,-12.65 -110.69,101.21 -224.56,202.41 -344.74,297.3 -101.2,82.23 -120.18,230.88 -37.94,332.08 44.27,60.1 113.85,88.56 183.43,88.56z"/>
    <path class="fil0" d="M12914.03 8665.5c-281.48,151.82 -581.94,281.49 -888.72,389.01 -123.35,44.28 -189.77,180.28 -145.49,303.62 34.8,98.05 126.51,158.14 224.56,158.14 25.3,0 53.76,-3.17 79.07,-12.65 328.93,-117.02 648.37,-256.18 951.99,-417.48 117.02,-60.09 158.13,-205.57 98.04,-319.43 -60.11,-120.19 -202.43,-164.46 -319.45,-101.21z"/>
    <path class="fil0" d="M9979.01 9911.62c344.73,-9.48 692.64,-44.28 1034.21,-104.37 129.67,-22.13 215.06,-145.49 192.93,-275.16 -22.13,-129.67 -142.32,-215.06 -275.16,-192.92 -319.43,53.76 -645.19,88.55 -964.63,98.04 -129.67,3.16 -234.04,113.85 -230.87,243.52 3.16,129.67 107.53,230.88 237.2,230.88 3.17,0.01 3.17,0.01 6.32,0.01z"/>
    <path class="fil0" d="M8764.52 9842.03c12.65,3.17 22.14,3.17 34.8,3.17 117.02,0 218.23,-85.39 234.04,-202.41 18.98,-129.68 -69.58,-249.86 -199.25,-268.84 -151.81,-22.13 -300.45,-50.61 -449.1,-82.23 -129.67,-28.46 -253.02,53.76 -281.49,180.28 -28.46,126.51 53.77,253.02 180.28,281.49 154.97,34.78 316.27,63.24 480.72,88.54z"/>
    <path class="fil0" d="M4450.56 14902.4c60.1,0 117.02,-22.13 164.47,-66.41 110.69,-104.38 224.55,-205.58 341.58,-300.46 101.2,-82.22 117.02,-230.87 34.79,-332.08 -82.23,-101.21 -234.04,-117.02 -332.08,-34.8 -129.67,104.38 -249.86,211.91 -370.05,325.77 -94.88,88.56 -98.04,240.37 -9.48,335.25 44.27,47.43 107.53,72.73 170.77,72.73z"/>
    <path class="fil0" d="M7303.34 13068.02c25.3,107.54 123.36,180.28 230.88,180.28 18.98,0 37.95,-3.16 56.93,-6.33 284.65,-69.58 575.62,-123.35 885.56,-164.46 126.5,-22.14 208.74,-139.16 192.93,-268.84 -18.98,-126.5 -139.16,-215.06 -268.84,-199.25 -309.95,37.95 -619.9,98.04 -923.52,170.79 -129.66,31.63 -205.55,161.3 -173.94,287.81z"/>
    <path class="fil0" d="M5807.38 13953.58c253.02,-145.48 521.85,-278.32 797.01,-389.01 120.19,-50.61 180.28,-189.76 129.67,-309.95 -50.6,-120.19 -186.59,-177.11 -309.94,-129.67 -294.14,120.19 -578.78,259.34 -853.95,417.48 -113.85,66.41 -151.81,208.74 -88.55,322.59 44.28,75.91 123.35,120.19 205.58,120.19 44.27,0 85.39,-9.48 120.18,-31.63z"/>
    <path class="fil0" d="M11237.78 13023.74c-37.95,126.51 31.63,259.34 158.13,297.3 284.65,85.4 562.97,192.93 825.48,316.27 31.63,15.82 66.41,22.14 101.21,22.14 88.55,0 173.95,-50.61 215.06,-136 53.76,-120.19 3.16,-259.34 -113.86,-316.27 -284.65,-132.84 -581.94,-246.69 -888.72,-338.42 -126.51,-44.27 -259.34,28.47 -297.3,154.98z"/>
    <path class="fil0" d="M9504.61 12549.33c-129.67,0 -234.04,104.37 -237.21,234.04 -3.16,129.67 101.21,240.37 234.04,240.37 297.3,6.33 594.59,28.47 885.56,69.58 12.65,3.17 22.14,3.17 34.8,3.17 117.02,0 218.22,-85.4 234.04,-202.42 18.98,-129.67 -72.74,-249.85 -202.41,-268.83 -309.95,-44.28 -626.22,-69.58 -945.66,-75.91 0,0 -3.16,0 -3.16,0z"/>
    <path class="fil0" d="M13059.52 13817.58c-75.91,107.54 -50.61,256.18 56.92,328.93 123.36,88.56 243.53,180.28 360.55,275.16 44.28,37.94 98.04,53.76 151.82,53.76 66.41,0 136,-28.47 183.43,-85.39 85.39,-101.21 69.58,-249.86 -28.46,-335.25 -126.51,-104.37 -256.18,-205.58 -392.18,-300.46 -107.53,-69.57 -256.18,-44.27 -332.08,63.25z"/>
   </g>
  </g>
 </g>
</svg>
